<?xml version="1.0" encoding="utf-8"?>
<svg viewBox="0 0 340 244.924" style="shape-rendering:geometricPrecision; text-rendering:geometricPrecision; image-rendering:optimizeQuality; fill-rule:evenodd; clip-rule:evenodd" xmlns="http://www.w3.org/2000/svg">
  <defs>
    <style type="text/css">
   
    .fil0 {fill:none}
    .fil5 {fill:#6D7DC8}
    .fil3 {fill:red}
    .fil1 {fill:#FF8C26}
    .fil2 {fill:white}
    .fil4 {fill:red;fill-rule:nonzero}
    .fil6 {fill:white;fill-rule:nonzero}
   
  </style>
  </defs>
  <g id="Layer_x0020_1">
    <rect class="fil0" width="340" height="340"/>
    <path class="fil1" d="M93.77 21.53l152.46 0c9.94,0 18.07,8.13 18.07,18.06l0 91.91c-0.58,0 -1.14,0.03 -1.7,0.07l0 -91.98c0,-8.99 -7.37,-16.36 -16.37,-16.36l-152.46 0c-9,0 -16.37,7.37 -16.37,16.36l0 19.66 185.2 0 0 1.7 -185.2 0 0 119.08 0.19 0.02c-0.62,-0.07 -1.25,-0.12 -1.89,-0.17l0 -140.29c0,-9.93 8.13,-18.06 18.07,-18.06zm170.53 150.35l0 9.73c-3.91,0.27 -7.78,0.78 -11.6,1.52 3.27,-0.64 6.57,-1.1 9.9,-1.39l0 -9.94c0.56,0.05 1.12,0.08 1.7,0.08zm-12.13 11.36c-0.28,0.05 -0.55,0.11 -0.83,0.17 0.28,-0.06 0.55,-0.12 0.83,-0.17zm-1.73 0.36c-0.14,0.04 -0.28,0.07 -0.43,0.1 0.15,-0.03 0.29,-0.06 0.43,-0.1zm-165.42 -2.44c-0.14,-0.03 -0.27,-0.05 -0.41,-0.08 0.14,0.03 0.28,0.05 0.41,0.08zm-0.64 -0.13c-0.15,-0.03 -0.31,-0.06 -0.47,-0.09 0.16,0.03 0.32,0.06 0.47,0.09z"/>
    <circle class="fil2" cx="102.34" cy="41.52" r="6.18"/>
    <circle class="fil2" cx="117.68" cy="41.52" r="6.18"/>
    <circle class="fil2" cx="133.05" cy="41.52" r="6.18"/>
    <circle class="fil2" cx="148.75" cy="114.24" r="6.18"/>
    <circle class="fil2" cx="191.25" cy="114.24" r="6.18"/>
    <path class="fil2" d="M156.07 40.87l78.23 0c0.51,0 0.93,0.38 0.93,0.85l0 0c0,0.47 -0.42,0.85 -0.93,0.85l-78.23 0c-0.51,0 -0.93,-0.38 -0.93,-0.85l0 0c0,-0.47 0.42,-0.85 0.93,-0.85z"/>
    <path class="fil2" d="M149.45 147.28c-0.35,0.31 -0.89,0.27 -1.2,-0.08 -0.31,-0.35 -0.27,-0.89 0.09,-1.2 7.19,-6.27 14.42,-9.29 21.66,-9.24 7.25,0.06 14.46,3.19 21.65,9.23 0.36,0.3 0.41,0.84 0.1,1.2 -0.3,0.35 -0.83,0.4 -1.19,0.1 -6.88,-5.79 -13.73,-8.78 -20.56,-8.83 -6.83,-0.05 -13.67,2.84 -20.55,8.82l0 0z"/>
    <path class="fil3" d="M264.3 131.5c11.15,0 20.18,9.04 20.18,20.19 0,11.15 -9.03,20.19 -20.18,20.19 -11.15,0 -20.19,-9.04 -20.19,-20.19 0,-11.15 9.04,-20.19 20.19,-20.19zm0 1.7c10.21,0 18.48,8.28 18.48,18.49 0,10.21 -8.27,18.49 -18.48,18.49 -10.21,0 -18.49,-8.28 -18.49,-18.49 0,-10.21 8.28,-18.49 18.49,-18.49z"/>
    <path class="fil4" d="M269.53 145.26c0.33,-0.34 0.87,-0.34 1.2,0 0.33,0.33 0.33,0.87 0,1.2l-11.66 11.66c-0.34,0.33 -0.87,0.33 -1.21,0 -0.33,-0.33 -0.33,-0.87 0,-1.2l11.67 -11.66 0 0z"/>
    <path class="fil4" d="M257.86 146.46c-0.33,-0.33 -0.33,-0.87 0,-1.2 0.34,-0.34 0.87,-0.34 1.21,0l11.66 11.66c0.33,0.33 0.33,0.87 0,1.2 -0.33,0.33 -0.87,0.33 -1.2,0l-11.67 -11.66 0 0z"/>
    <path class="fil2" d="M40.61 186.2c-0.45,0.14 -0.93,-0.11 -1.07,-0.55 -0.14,-0.45 0.11,-0.93 0.56,-1.07 16.76,-5.32 32.15,-6.26 46.26,-3.14 13.95,3.09 26.62,10.15 38.11,20.89 20.76,-8.46 41.52,-8.79 62.28,-0.23 4.61,-3.05 8.89,-4.54 12.86,-4.47 3.91,0.06 7.48,1.64 10.69,4.71 12.71,-9.31 25.95,-15.53 39.71,-18.64 13.98,-3.16 28.49,-3.1 43.53,0.2 0.46,0.1 0.75,0.55 0.65,1.01 -0.1,0.45 -0.55,0.75 -1.01,0.65 -14.8,-3.25 -29.07,-3.31 -42.8,-0.21 -13.73,3.11 -26.94,9.37 -39.64,18.77 -0.34,0.26 -0.82,0.24 -1.12,-0.07 -3.03,-3.09 -6.38,-4.67 -10.04,-4.73 -3.7,-0.06 -7.77,1.4 -12.21,4.4 -0.23,0.19 -0.56,0.24 -0.85,0.12 -20.62,-8.62 -41.25,-8.28 -61.87,0.25 -0.31,0.14 -0.68,0.09 -0.94,-0.15 -11.38,-10.74 -23.92,-17.79 -37.72,-20.84 -13.81,-3.06 -28.9,-2.13 -45.38,3.1l0 0z"/>
    <path class="fil2" d="M243.7 201.01c-0.41,0.22 -0.92,0.08 -1.15,-0.33 -0.23,-0.41 -0.08,-0.93 0.33,-1.15 7,-3.89 13.99,-6.1 20.99,-6.88 6.99,-0.78 13.97,-0.12 20.94,1.75 0.46,0.12 0.73,0.58 0.61,1.04 -0.13,0.45 -0.59,0.72 -1.04,0.6 -6.78,-1.81 -13.55,-2.46 -20.33,-1.7 -6.77,0.75 -13.56,2.9 -20.35,6.67l0 0z"/>
    <path class="fil2" d="M83.47 200.32c-0.47,-0.03 -0.83,-0.43 -0.8,-0.9 0.03,-0.47 0.43,-0.83 0.9,-0.8 6.79,0.43 12.1,2.12 16.27,4.78 3.99,2.53 6.94,5.93 9.18,9.92 3.2,-1.02 6.3,-1.31 9.33,-0.95 3.23,0.38 6.36,1.5 9.41,3.23 0.41,0.23 0.55,0.75 0.32,1.15 -0.23,0.41 -0.75,0.55 -1.15,0.32 -2.86,-1.62 -5.78,-2.66 -8.78,-3.01 -2.99,-0.36 -6.07,-0.03 -9.25,1.08 -0.39,0.14 -0.83,-0.02 -1.03,-0.4 -2.14,-4.01 -5.01,-7.41 -8.94,-9.91 -3.94,-2.5 -8.98,-4.11 -15.46,-4.51l0 0z"/>
    <path class="fil5" d="M225.83 86.11c-2.99,0.13 -3.99,-3.29 -2.82,-5.79 0.48,-1.05 1.34,-2.39 2.82,-4.04 1.44,1.62 2.3,2.95 2.79,3.98 1.19,2.53 0.23,5.98 -2.79,5.85z"/>
    <path class="fil5" d="M219.02 94.91c-2.99,0.13 -3.98,-3.29 -2.82,-5.79 0.49,-1.05 1.35,-2.39 2.82,-4.04 1.45,1.62 2.3,2.94 2.79,3.98 1.2,2.52 0.24,5.98 -2.79,5.85z"/>
    <path class="fil6" d="M38.64 255.45c0,1.36 -0.49,2.47 -1.46,3.32 -0.97,0.84 -2.24,1.26 -3.83,1.26 -1.22,0 -2.26,-0.21 -3.12,-0.65 -0.86,-0.44 -1.29,-0.95 -1.29,-1.54 0,-0.41 0.14,-0.75 0.41,-1.01 0.28,-0.25 0.66,-0.38 1.12,-0.38 0.24,0 0.72,0.11 1.46,0.34 0.73,0.23 1.35,0.35 1.86,0.35 0.43,0 0.8,-0.14 1.09,-0.4 0.3,-0.27 0.44,-0.6 0.44,-1 0,-0.44 -0.15,-0.78 -0.45,-1.04 -0.3,-0.26 -0.94,-0.55 -1.93,-0.84 -1.43,-0.43 -2.43,-0.93 -2.99,-1.51 -0.57,-0.59 -0.86,-1.37 -0.86,-2.36 0,-1.27 0.46,-2.3 1.38,-3.11 0.91,-0.8 2.1,-1.21 3.57,-1.21 1.08,0 1.97,0.2 2.67,0.58 0.7,0.39 1.05,0.87 1.05,1.44 0,0.41 -0.13,0.74 -0.37,0.97 -0.25,0.23 -0.59,0.35 -1.03,0.35 -0.24,0 -0.64,-0.08 -1.19,-0.24 -0.55,-0.16 -0.96,-0.24 -1.24,-0.24 -0.47,0 -0.83,0.11 -1.11,0.32 -0.27,0.22 -0.41,0.5 -0.41,0.85 0,0.56 0.61,1.03 1.82,1.41 0.28,0.08 0.5,0.15 0.65,0.2 1.31,0.44 2.26,0.99 2.86,1.65 0.6,0.67 0.9,1.5 0.9,2.49z"/>
    <path id="1" class="fil6" d="M40.06 257.6l0 -6.08c0,-0.75 0.12,-1.3 0.37,-1.67 0.25,-0.37 0.63,-0.55 1.14,-0.55 0.29,0 0.56,0.08 0.8,0.24 0.24,0.17 0.45,0.42 0.64,0.76 0.31,-0.34 0.67,-0.6 1.06,-0.76 0.39,-0.16 0.84,-0.24 1.35,-0.24 0.65,0 1.23,0.12 1.73,0.35 0.49,0.24 0.93,0.59 1.29,1.07 0.45,-0.51 0.92,-0.87 1.39,-1.09 0.48,-0.22 1.03,-0.33 1.65,-0.33 1.08,0 1.92,0.34 2.52,1.04 0.59,0.69 0.89,1.66 0.89,2.92l0 4.34c0,0.74 -0.12,1.3 -0.37,1.66 -0.25,0.36 -0.63,0.54 -1.14,0.54 -0.51,0 -0.89,-0.18 -1.13,-0.54 -0.24,-0.35 -0.37,-0.91 -0.37,-1.66l0 -3.42c0,-0.79 -0.11,-1.37 -0.33,-1.74 -0.22,-0.37 -0.57,-0.55 -1.04,-0.55 -0.53,0 -0.91,0.18 -1.16,0.54 -0.24,0.36 -0.36,0.93 -0.36,1.71l0 3.46c0,0.74 -0.13,1.3 -0.37,1.66 -0.25,0.36 -0.63,0.54 -1.15,0.54 -0.51,0 -0.89,-0.18 -1.14,-0.54 -0.25,-0.36 -0.37,-0.92 -0.37,-1.66l0 -3.42c0,-0.8 -0.11,-1.38 -0.33,-1.74 -0.22,-0.37 -0.56,-0.55 -1.03,-0.55 -0.52,0 -0.91,0.18 -1.15,0.54 -0.24,0.36 -0.37,0.93 -0.37,1.71l0 3.46c0,0.74 -0.12,1.3 -0.37,1.66 -0.25,0.36 -0.63,0.54 -1.14,0.54 -0.52,0 -0.9,-0.18 -1.14,-0.54 -0.25,-0.36 -0.37,-0.92 -0.37,-1.66z"/>
    <path id="2" class="fil6" d="M63.4 258.75c-0.3,0.37 -0.67,0.66 -1.11,0.86 -0.43,0.19 -0.9,0.29 -1.41,0.29 -1.29,0 -2.38,-0.51 -3.26,-1.52 -0.89,-1.02 -1.33,-2.29 -1.33,-3.82 0,-1.5 0.46,-2.77 1.37,-3.8 0.91,-1.02 2.02,-1.54 3.33,-1.54 0.51,0 0.97,0.09 1.36,0.26 0.4,0.18 0.75,0.45 1.05,0.82 0.18,-0.32 0.39,-0.56 0.63,-0.72 0.25,-0.16 0.52,-0.24 0.82,-0.24 0.51,0 0.88,0.18 1.13,0.53 0.24,0.35 0.36,0.91 0.36,1.65l0 6.08c0,0.74 -0.13,1.29 -0.37,1.65 -0.25,0.37 -0.62,0.55 -1.12,0.55 -0.34,0 -0.62,-0.09 -0.86,-0.26 -0.23,-0.16 -0.42,-0.43 -0.59,-0.79zm-3.98 -4.22c0,0.75 0.18,1.34 0.54,1.8 0.36,0.45 0.83,0.67 1.41,0.67 0.57,0 1.04,-0.23 1.4,-0.68 0.36,-0.46 0.54,-1.06 0.54,-1.79 0,-0.71 -0.18,-1.29 -0.55,-1.74 -0.36,-0.45 -0.82,-0.67 -1.39,-0.67 -0.57,0 -1.04,0.22 -1.41,0.67 -0.36,0.44 -0.54,1.02 -0.54,1.74z"/>
    <path id="3" class="fil6" d="M68.53 247.25c0,-0.75 0.12,-1.3 0.37,-1.66 0.25,-0.37 0.63,-0.55 1.14,-0.55 0.5,0 0.88,0.18 1.12,0.55 0.25,0.37 0.37,0.92 0.37,1.66l0 10.35c0,0.75 -0.12,1.31 -0.36,1.67 -0.25,0.35 -0.62,0.53 -1.13,0.53 -0.51,0 -0.89,-0.18 -1.14,-0.54 -0.25,-0.36 -0.37,-0.91 -0.37,-1.66l0 -10.35z"/>
    <path id="4" class="fil6" d="M73.79 247.25c0,-0.75 0.13,-1.3 0.38,-1.66 0.25,-0.37 0.63,-0.55 1.14,-0.55 0.5,0 0.88,0.18 1.12,0.55 0.25,0.37 0.37,0.92 0.37,1.66l0 10.35c0,0.75 -0.12,1.31 -0.36,1.67 -0.25,0.35 -0.62,0.53 -1.13,0.53 -0.51,0 -0.89,-0.18 -1.14,-0.54 -0.25,-0.36 -0.38,-0.91 -0.38,-1.66l0 -10.35z"/>
    <path id="5" class="fil6" d="M87.69 254.51c0,0.75 0.19,1.36 0.57,1.83 0.37,0.47 0.85,0.7 1.43,0.7 0.58,0 1.05,-0.23 1.42,-0.7 0.37,-0.46 0.55,-1.07 0.55,-1.83 0,-0.77 -0.18,-1.39 -0.55,-1.86 -0.36,-0.47 -0.84,-0.71 -1.42,-0.71 -0.59,0 -1.07,0.24 -1.44,0.72 -0.37,0.47 -0.56,1.09 -0.56,1.85zm4.01 4.32c-0.31,0.34 -0.68,0.59 -1.09,0.77 -0.42,0.17 -0.87,0.26 -1.36,0.26 -1.27,0 -2.36,-0.52 -3.28,-1.57 -0.92,-1.04 -1.38,-2.32 -1.38,-3.82 0,-1.49 0.45,-2.76 1.36,-3.79 0.91,-1.02 2.01,-1.54 3.3,-1.54 0.47,0 0.89,0.07 1.28,0.22 0.38,0.14 0.75,0.35 1.09,0.65l0 -2.76c0,-0.75 0.13,-1.3 0.37,-1.66 0.25,-0.37 0.63,-0.55 1.15,-0.55 0.5,0 0.88,0.18 1.12,0.55 0.25,0.36 0.37,0.92 0.37,1.66l0 10.36c0,0.74 -0.12,1.3 -0.36,1.66 -0.25,0.35 -0.62,0.53 -1.13,0.53 -0.3,0 -0.57,-0.08 -0.81,-0.24 -0.25,-0.17 -0.46,-0.41 -0.63,-0.73z"/>
    <path id="6" class="fil6" d="M99.2 253.44l3.98 0c-0.03,-0.52 -0.24,-0.94 -0.61,-1.29 -0.38,-0.34 -0.82,-0.51 -1.34,-0.51 -0.51,0 -0.95,0.16 -1.32,0.49 -0.37,0.32 -0.61,0.76 -0.71,1.31zm0.03 1.97c0.07,0.57 0.3,1.01 0.7,1.33 0.4,0.32 0.93,0.48 1.59,0.48 0.56,0 1.2,-0.17 1.89,-0.49 0.7,-0.33 1.12,-0.49 1.29,-0.49 0.36,0 0.64,0.11 0.87,0.32 0.22,0.22 0.34,0.5 0.34,0.85 0,0.64 -0.46,1.23 -1.36,1.75 -0.91,0.52 -1.97,0.78 -3.19,0.78 -1.49,0 -2.74,-0.51 -3.73,-1.53 -1,-1.02 -1.5,-2.29 -1.5,-3.83 0,-1.54 0.48,-2.82 1.46,-3.85 0.96,-1.03 2.17,-1.55 3.62,-1.55 1.4,0 2.57,0.49 3.51,1.45 0.95,0.97 1.42,2.16 1.42,3.56 0,0.45 -0.11,0.77 -0.31,0.95 -0.21,0.18 -0.61,0.27 -1.2,0.27l-5.4 0z"/>
    <path id="7" class="fil6" d="M109.15 258.35l-2.63 -6.69c-0.06,-0.16 -0.1,-0.3 -0.13,-0.44 -0.03,-0.14 -0.04,-0.27 -0.04,-0.39 0,-0.42 0.13,-0.77 0.41,-1.06 0.28,-0.29 0.63,-0.43 1.04,-0.43 0.38,0 0.69,0.11 0.93,0.34 0.25,0.23 0.45,0.61 0.62,1.14l1.65 5.25 1.64 -5.45c0.12,-0.41 0.3,-0.72 0.54,-0.93 0.24,-0.21 0.53,-0.32 0.87,-0.32 0.43,0 0.77,0.14 1.03,0.41 0.26,0.27 0.39,0.63 0.39,1.07 0,0.14 -0.02,0.3 -0.06,0.46 -0.03,0.16 -0.09,0.34 -0.17,0.53l-2.55 6.6c-0.21,0.56 -0.45,0.95 -0.71,1.16 -0.25,0.21 -0.59,0.32 -1.02,0.32 -0.43,0 -0.79,-0.11 -1.05,-0.32 -0.27,-0.22 -0.52,-0.64 -0.76,-1.25z"/>
    <path id="8" class="fil6" d="M116.2 246.79c0,-0.48 0.17,-0.89 0.51,-1.23 0.34,-0.35 0.76,-0.52 1.24,-0.52 0.47,0 0.88,0.17 1.21,0.52 0.34,0.34 0.51,0.75 0.51,1.23 0,0.49 -0.17,0.9 -0.5,1.24 -0.34,0.33 -0.74,0.5 -1.22,0.5 -0.5,0 -0.91,-0.17 -1.25,-0.5 -0.33,-0.34 -0.5,-0.75 -0.5,-1.24zm3.24 10.81c0,0.75 -0.12,1.31 -0.37,1.67 -0.24,0.35 -0.62,0.53 -1.12,0.53 -0.52,0 -0.9,-0.18 -1.15,-0.54 -0.25,-0.36 -0.37,-0.91 -0.37,-1.66l0 -6.08c0,-0.74 0.12,-1.29 0.37,-1.65 0.24,-0.35 0.63,-0.53 1.15,-0.53 0.5,0 0.88,0.18 1.12,0.53 0.25,0.36 0.37,0.91 0.37,1.65l0 6.08z"/>
    <path id="9" class="fil6" d="M121.01 254.56c0,-1.59 0.47,-2.88 1.43,-3.87 0.95,-0.99 2.21,-1.49 3.76,-1.49 1,0 1.82,0.18 2.44,0.54 0.62,0.36 0.94,0.83 0.94,1.4 0,0.37 -0.12,0.68 -0.36,0.92 -0.24,0.24 -0.54,0.36 -0.9,0.36 -0.15,0 -0.47,-0.07 -0.94,-0.23 -0.48,-0.15 -0.87,-0.23 -1.18,-0.23 -0.62,0 -1.13,0.24 -1.51,0.71 -0.39,0.47 -0.58,1.08 -0.58,1.84 0,0.79 0.2,1.42 0.59,1.87 0.39,0.46 0.93,0.68 1.61,0.68 0.33,0 0.73,-0.07 1.18,-0.23 0.46,-0.15 0.76,-0.23 0.9,-0.23 0.33,0 0.6,0.13 0.83,0.38 0.22,0.25 0.34,0.56 0.34,0.93 0,0.55 -0.34,1.03 -1.02,1.42 -0.68,0.39 -1.52,0.59 -2.53,0.59 -1.48,0 -2.69,-0.5 -3.61,-1.48 -0.93,-0.99 -1.39,-2.29 -1.39,-3.88z"/>
    <path id="10" class="fil6" d="M133.18 253.44l3.99 0c-0.04,-0.52 -0.24,-0.94 -0.62,-1.29 -0.37,-0.34 -0.82,-0.51 -1.33,-0.51 -0.52,0 -0.96,0.16 -1.32,0.49 -0.37,0.32 -0.61,0.76 -0.72,1.31zm0.04 1.97c0.07,0.57 0.3,1.01 0.7,1.33 0.4,0.32 0.93,0.48 1.58,0.48 0.57,0 1.2,-0.17 1.9,-0.49 0.69,-0.33 1.12,-0.49 1.29,-0.49 0.35,0 0.64,0.11 0.87,0.32 0.22,0.22 0.33,0.5 0.33,0.85 0,0.64 -0.45,1.23 -1.35,1.75 -0.91,0.52 -1.97,0.78 -3.19,0.78 -1.5,0 -2.74,-0.51 -3.74,-1.53 -1,-1.02 -1.49,-2.29 -1.49,-3.83 0,-1.54 0.48,-2.82 1.45,-3.85 0.97,-1.03 2.18,-1.55 3.63,-1.55 1.4,0 2.57,0.49 3.51,1.45 0.94,0.97 1.41,2.16 1.41,3.56 0,0.45 -0.1,0.77 -0.31,0.95 -0.2,0.18 -0.6,0.27 -1.19,0.27l-5.4 0z"/>
    <path id="11" class="fil6" d="M144.34 259.96c-1.07,0 -1.97,-0.22 -2.68,-0.65 -0.7,-0.43 -1.06,-0.96 -1.06,-1.6 0,-0.38 0.11,-0.7 0.34,-0.96 0.22,-0.26 0.5,-0.39 0.81,-0.39 0.32,0 0.79,0.14 1.41,0.43 0.62,0.3 1.08,0.44 1.39,0.44 0.25,0 0.46,-0.06 0.61,-0.17 0.16,-0.12 0.24,-0.27 0.24,-0.44 0,-0.3 -0.49,-0.64 -1.46,-1.03l-0.2 -0.08c-1.1,-0.46 -1.86,-0.91 -2.26,-1.37 -0.41,-0.45 -0.61,-1.02 -0.61,-1.72 0,-0.93 0.36,-1.7 1.07,-2.32 0.72,-0.63 1.62,-0.94 2.71,-0.94 0.99,0 1.83,0.21 2.52,0.63 0.68,0.42 1.02,0.91 1.02,1.48 0,0.36 -0.12,0.66 -0.36,0.9 -0.24,0.25 -0.53,0.37 -0.88,0.37 -0.24,0 -0.63,-0.12 -1.18,-0.37 -0.55,-0.24 -0.98,-0.36 -1.26,-0.36 -0.21,0 -0.37,0.05 -0.5,0.14 -0.12,0.1 -0.19,0.23 -0.19,0.38 0,0.28 0.41,0.58 1.21,0.88 0.37,0.15 0.67,0.27 0.89,0.37 0.9,0.4 1.55,0.83 1.93,1.28 0.38,0.45 0.57,1 0.57,1.65 0,0.98 -0.38,1.8 -1.15,2.46 -0.77,0.66 -1.75,0.99 -2.93,0.99z"/>
    <path id="12" class="fil6" d="M156 257.61l0 -6.08c0,-0.74 0.12,-1.3 0.37,-1.65 0.25,-0.36 0.63,-0.54 1.14,-0.54 0.31,0 0.58,0.08 0.82,0.24 0.23,0.16 0.44,0.4 0.63,0.72 0.32,-0.36 0.69,-0.62 1.12,-0.78 0.42,-0.16 0.94,-0.24 1.54,-0.24 1.19,0 2.1,0.34 2.73,1.02 0.63,0.68 0.95,1.67 0.95,2.97l0 4.34c0,0.74 -0.13,1.29 -0.38,1.65 -0.24,0.36 -0.63,0.54 -1.14,0.54 -0.51,0 -0.89,-0.18 -1.14,-0.54 -0.25,-0.36 -0.37,-0.91 -0.37,-1.65l0 -3.42c0,-0.84 -0.13,-1.44 -0.38,-1.81 -0.25,-0.35 -0.67,-0.53 -1.25,-0.53 -0.55,0 -0.96,0.18 -1.22,0.55 -0.26,0.37 -0.39,0.96 -0.39,1.75l0 3.46c0,0.74 -0.13,1.29 -0.37,1.65 -0.26,0.36 -0.64,0.54 -1.15,0.54 -0.51,0 -0.89,-0.18 -1.14,-0.54 -0.25,-0.36 -0.37,-0.91 -0.37,-1.65z"/>
    <path id="13" class="fil6" d="M169.82 254.53c0,0.77 0.18,1.39 0.55,1.86 0.37,0.47 0.85,0.71 1.44,0.71 0.6,0 1.08,-0.24 1.44,-0.71 0.37,-0.47 0.56,-1.09 0.56,-1.86 0,-0.75 -0.19,-1.35 -0.57,-1.82 -0.38,-0.47 -0.85,-0.71 -1.43,-0.71 -0.58,0 -1.06,0.23 -1.43,0.7 -0.38,0.47 -0.56,1.08 -0.56,1.83zm-3.13 0.03c0,-1.57 0.49,-2.86 1.45,-3.88 0.96,-1.01 2.19,-1.52 3.67,-1.52 1.5,0 2.72,0.51 3.67,1.52 0.96,1.01 1.43,2.31 1.43,3.88 0,1.59 -0.47,2.88 -1.43,3.9 -0.95,1.01 -2.17,1.52 -3.67,1.52 -1.48,0 -2.71,-0.51 -3.67,-1.53 -0.96,-1.02 -1.45,-2.31 -1.45,-3.89z"/>
    <path id="14" class="fil6" d="M179.02 252.25l-0.11 0c-0.53,0 -0.95,-0.12 -1.25,-0.35 -0.31,-0.23 -0.46,-0.55 -0.46,-0.95 0,-0.41 0.15,-0.73 0.46,-0.95 0.3,-0.23 0.75,-0.36 1.36,-0.4l0 -1.32c0,-0.74 0.13,-1.3 0.38,-1.66 0.24,-0.36 0.62,-0.54 1.14,-0.54 0.5,0 0.87,0.18 1.12,0.54 0.25,0.36 0.37,0.92 0.37,1.66l0 1.32 0.26 0c0.6,0 1.07,0.12 1.41,0.36 0.33,0.24 0.5,0.57 0.5,0.99 0,0.43 -0.16,0.75 -0.48,0.97 -0.33,0.22 -0.81,0.33 -1.45,0.33l-0.24 0 0 5.36c0,0.74 -0.12,1.3 -0.36,1.66 -0.25,0.35 -0.62,0.53 -1.13,0.53 -0.52,0 -0.9,-0.18 -1.14,-0.54 -0.25,-0.36 -0.38,-0.91 -0.38,-1.65l0 -5.36z"/>
    <path id="15" class="fil6" d="M196.54 250.54c0.15,-0.41 0.34,-0.72 0.55,-0.91 0.21,-0.2 0.48,-0.29 0.8,-0.29 0.45,0 0.8,0.13 1.07,0.39 0.27,0.25 0.41,0.6 0.41,1.05 0,0.14 -0.03,0.3 -0.07,0.48 -0.04,0.17 -0.11,0.36 -0.19,0.57l-4.6 10.93c-0.19,0.46 -0.39,0.78 -0.59,0.96 -0.2,0.17 -0.44,0.26 -0.73,0.26 -0.46,0 -0.83,-0.13 -1.09,-0.39 -0.27,-0.26 -0.41,-0.62 -0.41,-1.07 0,-0.17 0.03,-0.34 0.07,-0.51 0.04,-0.18 0.11,-0.35 0.19,-0.52l1.24 -2.7 -3.05 -7.11c-0.05,-0.12 -0.09,-0.24 -0.11,-0.37 -0.03,-0.14 -0.04,-0.3 -0.04,-0.48 0,-0.42 0.14,-0.77 0.42,-1.06 0.28,-0.29 0.63,-0.43 1.04,-0.43 0.36,0 0.66,0.1 0.89,0.31 0.22,0.2 0.44,0.58 0.64,1.15l1.71 4.56 1.85 -4.82z"/>
    <path id="16" class="fil6" d="M202.7 253.44l3.99 0c-0.04,-0.52 -0.24,-0.94 -0.62,-1.29 -0.37,-0.34 -0.82,-0.51 -1.34,-0.51 -0.51,0 -0.95,0.16 -1.32,0.49 -0.37,0.32 -0.6,0.76 -0.71,1.31zm0.04 1.97c0.07,0.57 0.3,1.01 0.7,1.33 0.4,0.32 0.93,0.48 1.58,0.48 0.57,0 1.2,-0.17 1.9,-0.49 0.69,-0.33 1.12,-0.49 1.28,-0.49 0.36,0 0.65,0.11 0.88,0.32 0.22,0.22 0.33,0.5 0.33,0.85 0,0.64 -0.45,1.23 -1.36,1.75 -0.9,0.52 -1.96,0.78 -3.19,0.78 -1.49,0 -2.73,-0.51 -3.73,-1.53 -1,-1.02 -1.5,-2.29 -1.5,-3.83 0,-1.54 0.49,-2.82 1.46,-3.85 0.97,-1.03 2.18,-1.55 3.63,-1.55 1.39,0 2.57,0.49 3.51,1.45 0.94,0.97 1.41,2.16 1.41,3.56 0,0.45 -0.1,0.77 -0.31,0.95 -0.21,0.18 -0.6,0.27 -1.19,0.27l-5.4 0z"/>
    <path id="17" class="fil6" d="M211.58 252.25l-0.11 0c-0.54,0 -0.95,-0.12 -1.26,-0.35 -0.3,-0.23 -0.45,-0.55 -0.45,-0.95 0,-0.41 0.15,-0.73 0.45,-0.95 0.31,-0.23 0.76,-0.36 1.37,-0.4l0 -1.32c0,-0.74 0.12,-1.3 0.37,-1.66 0.25,-0.36 0.63,-0.54 1.14,-0.54 0.51,0 0.88,0.18 1.13,0.54 0.24,0.36 0.37,0.92 0.37,1.66l0 1.32 0.26 0c0.6,0 1.07,0.12 1.4,0.36 0.34,0.24 0.5,0.57 0.5,0.99 0,0.43 -0.16,0.75 -0.48,0.97 -0.32,0.22 -0.8,0.33 -1.44,0.33l-0.24 0 0 5.36c0,0.74 -0.12,1.3 -0.37,1.66 -0.24,0.35 -0.62,0.53 -1.13,0.53 -0.51,0 -0.89,-0.18 -1.14,-0.54 -0.25,-0.36 -0.37,-0.91 -0.37,-1.65l0 -5.36z"/>
    <path id="18" class="fil6" d="M226.46 259.96c-1.08,0 -1.97,-0.22 -2.68,-0.65 -0.71,-0.43 -1.06,-0.96 -1.06,-1.6 0,-0.38 0.11,-0.7 0.33,-0.96 0.23,-0.26 0.5,-0.39 0.82,-0.39 0.32,0 0.79,0.14 1.41,0.43 0.61,0.3 1.08,0.44 1.39,0.44 0.25,0 0.45,-0.06 0.61,-0.17 0.16,-0.12 0.23,-0.27 0.23,-0.44 0,-0.3 -0.48,-0.64 -1.45,-1.03l-0.2 -0.08c-1.11,-0.46 -1.86,-0.91 -2.27,-1.37 -0.4,-0.45 -0.6,-1.02 -0.6,-1.72 0,-0.93 0.36,-1.7 1.07,-2.32 0.71,-0.63 1.62,-0.94 2.71,-0.94 0.99,0 1.83,0.21 2.51,0.63 0.69,0.42 1.03,0.91 1.03,1.48 0,0.36 -0.12,0.66 -0.36,0.9 -0.24,0.25 -0.54,0.37 -0.88,0.37 -0.24,0 -0.63,-0.12 -1.18,-0.37 -0.56,-0.24 -0.98,-0.36 -1.27,-0.36 -0.2,0 -0.37,0.05 -0.49,0.14 -0.13,0.1 -0.19,0.23 -0.19,0.38 0,0.28 0.4,0.58 1.2,0.88 0.38,0.15 0.68,0.27 0.9,0.37 0.9,0.4 1.54,0.83 1.93,1.28 0.38,0.45 0.57,1 0.57,1.65 0,0.98 -0.39,1.8 -1.16,2.46 -0.77,0.66 -1.74,0.99 -2.92,0.99z"/>
    <path id="19" class="fil6" d="M231.84 255.55l0 -4.03c0,-0.74 0.13,-1.29 0.38,-1.65 0.25,-0.35 0.63,-0.53 1.14,-0.53 0.5,0 0.88,0.18 1.12,0.53 0.25,0.36 0.37,0.91 0.37,1.65l0 3.41c0,0.81 0.13,1.37 0.37,1.71 0.24,0.33 0.64,0.5 1.19,0.5 0.55,0 0.94,-0.17 1.19,-0.5 0.24,-0.34 0.36,-0.9 0.36,-1.71l0 -3.41c0,-0.74 0.13,-1.29 0.37,-1.65 0.25,-0.35 0.63,-0.53 1.15,-0.53 0.51,0 0.88,0.18 1.13,0.53 0.24,0.35 0.36,0.91 0.36,1.65l0 4.03c0,1.43 -0.39,2.53 -1.17,3.29 -0.78,0.76 -1.91,1.14 -3.39,1.14 -1.48,0 -2.61,-0.38 -3.39,-1.14 -0.78,-0.76 -1.18,-1.86 -1.18,-3.29z"/>
    <path id="20" class="fil6" d="M245.98 254.61c0,0.77 0.18,1.39 0.55,1.86 0.37,0.47 0.85,0.71 1.44,0.71 0.6,0 1.07,-0.24 1.44,-0.72 0.37,-0.47 0.55,-1.09 0.55,-1.85 0,-0.75 -0.18,-1.35 -0.56,-1.83 -0.38,-0.47 -0.85,-0.7 -1.43,-0.7 -0.58,0 -1.06,0.23 -1.43,0.7 -0.37,0.47 -0.56,1.07 -0.56,1.83zm0.05 7.07c0,0.75 -0.12,1.3 -0.37,1.66 -0.25,0.37 -0.63,0.55 -1.14,0.55 -0.52,0 -0.9,-0.18 -1.14,-0.55 -0.25,-0.36 -0.37,-0.91 -0.37,-1.66l0 -10.16c0,-0.74 0.12,-1.29 0.37,-1.65 0.24,-0.35 0.62,-0.53 1.14,-0.53 0.3,0 0.58,0.08 0.81,0.24 0.24,0.15 0.45,0.4 0.63,0.72 0.31,-0.34 0.68,-0.6 1.1,-0.78 0.42,-0.17 0.88,-0.26 1.39,-0.26 1.29,0 2.39,0.5 3.27,1.52 0.89,1.01 1.33,2.27 1.33,3.79 0,1.51 -0.45,2.79 -1.36,3.84 -0.91,1.06 -2,1.59 -3.28,1.59 -0.45,0 -0.88,-0.08 -1.27,-0.23 -0.39,-0.14 -0.76,-0.36 -1.11,-0.65l0 2.56z"/>
    <path id="21" class="fil6" d="M257.52 254.61c0,0.77 0.18,1.39 0.55,1.86 0.37,0.47 0.85,0.71 1.44,0.71 0.6,0 1.08,-0.24 1.44,-0.72 0.37,-0.47 0.56,-1.09 0.56,-1.85 0,-0.75 -0.19,-1.35 -0.57,-1.83 -0.38,-0.47 -0.85,-0.7 -1.43,-0.7 -0.58,0 -1.06,0.23 -1.43,0.7 -0.37,0.47 -0.56,1.07 -0.56,1.83zm0.06 7.07c0,0.75 -0.13,1.3 -0.38,1.66 -0.25,0.37 -0.63,0.55 -1.14,0.55 -0.52,0 -0.9,-0.18 -1.14,-0.55 -0.25,-0.36 -0.37,-0.91 -0.37,-1.66l0 -10.16c0,-0.74 0.12,-1.29 0.37,-1.65 0.24,-0.35 0.62,-0.53 1.14,-0.53 0.3,0 0.58,0.08 0.81,0.24 0.24,0.15 0.45,0.4 0.63,0.72 0.31,-0.34 0.68,-0.6 1.1,-0.78 0.42,-0.17 0.88,-0.26 1.39,-0.26 1.3,0 2.39,0.5 3.27,1.52 0.89,1.01 1.33,2.27 1.33,3.79 0,1.51 -0.45,2.79 -1.36,3.84 -0.91,1.06 -2,1.59 -3.28,1.59 -0.45,0 -0.88,-0.08 -1.27,-0.23 -0.39,-0.14 -0.76,-0.36 -1.1,-0.65l0 2.56z"/>
    <path id="22" class="fil6" d="M268.62 254.53c0,0.77 0.18,1.39 0.55,1.86 0.37,0.47 0.85,0.71 1.44,0.71 0.6,0 1.08,-0.24 1.44,-0.71 0.37,-0.47 0.56,-1.09 0.56,-1.86 0,-0.75 -0.19,-1.35 -0.57,-1.82 -0.38,-0.47 -0.85,-0.71 -1.43,-0.71 -0.59,0 -1.06,0.23 -1.44,0.7 -0.37,0.47 -0.55,1.08 -0.55,1.83zm-3.13 0.03c0,-1.57 0.49,-2.86 1.45,-3.88 0.96,-1.01 2.19,-1.52 3.67,-1.52 1.49,0 2.72,0.51 3.67,1.52 0.96,1.01 1.43,2.31 1.43,3.88 0,1.59 -0.47,2.88 -1.43,3.9 -0.95,1.01 -2.18,1.52 -3.67,1.52 -1.48,0 -2.71,-0.51 -3.67,-1.53 -0.96,-1.02 -1.45,-2.31 -1.45,-3.89z"/>
    <path id="23" class="fil6" d="M277.21 257.6l0 -6.08c0,-0.74 0.12,-1.29 0.37,-1.65 0.24,-0.35 0.62,-0.53 1.14,-0.53 0.3,0 0.58,0.08 0.81,0.24 0.24,0.16 0.45,0.4 0.63,0.72 0.31,-0.34 0.65,-0.59 0.99,-0.76 0.35,-0.18 0.71,-0.26 1.06,-0.26 0.42,0 0.78,0.15 1.08,0.44 0.3,0.3 0.45,0.65 0.45,1.06 0,0.6 -0.55,1.11 -1.66,1.52 -0.4,0.14 -0.7,0.26 -0.9,0.35 -0.38,0.18 -0.63,0.38 -0.76,0.6 -0.12,0.22 -0.18,0.63 -0.18,1.21l0 3.14c0,0.75 -0.13,1.3 -0.38,1.66 -0.25,0.36 -0.63,0.54 -1.14,0.54 -0.52,0 -0.9,-0.18 -1.14,-0.54 -0.25,-0.36 -0.37,-0.91 -0.37,-1.66z"/>
    <path id="24" class="fil6" d="M285.1 252.25l-0.11 0c-0.53,0 -0.95,-0.12 -1.25,-0.35 -0.31,-0.23 -0.46,-0.55 -0.46,-0.95 0,-0.41 0.15,-0.73 0.46,-0.95 0.3,-0.23 0.76,-0.36 1.36,-0.4l0 -1.32c0,-0.74 0.13,-1.3 0.38,-1.66 0.25,-0.36 0.63,-0.54 1.14,-0.54 0.5,0 0.88,0.18 1.12,0.54 0.25,0.36 0.37,0.92 0.37,1.66l0 1.32 0.26 0c0.61,0 1.07,0.12 1.41,0.36 0.33,0.24 0.5,0.57 0.5,0.99 0,0.43 -0.16,0.75 -0.48,0.97 -0.33,0.22 -0.81,0.33 -1.44,0.33l-0.25 0 0 5.36c0,0.74 -0.12,1.3 -0.36,1.66 -0.24,0.35 -0.62,0.53 -1.13,0.53 -0.51,0 -0.89,-0.18 -1.14,-0.54 -0.25,-0.36 -0.38,-0.91 -0.38,-1.65l0 -5.36z"/>
    <path id="25" class="fil6" d="M293.35 253.44l3.98 0c-0.03,-0.52 -0.24,-0.94 -0.61,-1.29 -0.38,-0.34 -0.82,-0.51 -1.34,-0.51 -0.51,0 -0.95,0.16 -1.32,0.49 -0.37,0.32 -0.61,0.76 -0.71,1.31zm0.03 1.97c0.07,0.57 0.31,1.01 0.7,1.33 0.4,0.32 0.93,0.48 1.59,0.48 0.56,0 1.2,-0.17 1.89,-0.49 0.7,-0.33 1.13,-0.49 1.29,-0.49 0.36,0 0.64,0.11 0.87,0.32 0.22,0.22 0.34,0.5 0.34,0.85 0,0.64 -0.46,1.23 -1.36,1.75 -0.91,0.52 -1.97,0.78 -3.19,0.78 -1.49,0 -2.74,-0.51 -3.73,-1.53 -1,-1.02 -1.5,-2.29 -1.5,-3.83 0,-1.54 0.48,-2.82 1.46,-3.85 0.96,-1.03 2.18,-1.55 3.62,-1.55 1.4,0 2.57,0.49 3.51,1.45 0.95,0.97 1.42,2.16 1.42,3.56 0,0.45 -0.11,0.77 -0.31,0.95 -0.21,0.18 -0.61,0.27 -1.2,0.27l-5.4 0z"/>
    <path id="26" class="fil6" d="M304.12 254.51c0,0.75 0.19,1.36 0.56,1.83 0.38,0.47 0.85,0.7 1.43,0.7 0.58,0 1.06,-0.23 1.43,-0.7 0.36,-0.46 0.55,-1.07 0.55,-1.83 0,-0.77 -0.18,-1.39 -0.55,-1.86 -0.36,-0.47 -0.84,-0.71 -1.43,-0.71 -0.58,0 -1.06,0.24 -1.43,0.72 -0.37,0.47 -0.56,1.09 -0.56,1.85zm4 4.32c-0.31,0.34 -0.67,0.59 -1.09,0.77 -0.41,0.17 -0.86,0.26 -1.36,0.26 -1.26,0 -2.35,-0.52 -3.27,-1.57 -0.93,-1.04 -1.39,-2.32 -1.39,-3.82 0,-1.49 0.46,-2.76 1.37,-3.79 0.9,-1.02 2,-1.54 3.29,-1.54 0.47,0 0.9,0.07 1.28,0.22 0.39,0.14 0.76,0.35 1.1,0.65l0 -2.76c0,-0.75 0.13,-1.3 0.37,-1.66 0.25,-0.37 0.63,-0.55 1.15,-0.55 0.5,0 0.87,0.18 1.12,0.55 0.25,0.36 0.37,0.92 0.37,1.66l0 10.36c0,0.74 -0.12,1.3 -0.36,1.66 -0.25,0.35 -0.62,0.53 -1.13,0.53 -0.3,0 -0.57,-0.08 -0.82,-0.24 -0.24,-0.17 -0.45,-0.41 -0.63,-0.73z"/>
    <path class="fil6" d="M35.03 289.06l-0.74 0c-0.48,0 -0.83,-0.08 -1.07,-0.23 -0.23,-0.15 -0.34,-0.38 -0.34,-0.69 0,-0.32 0.11,-0.55 0.35,-0.71 0.23,-0.15 0.59,-0.23 1.06,-0.23l3.47 0c0.47,0 0.82,0.08 1.06,0.23 0.23,0.16 0.35,0.39 0.35,0.71 0,0.31 -0.11,0.54 -0.35,0.69 -0.23,0.15 -0.59,0.23 -1.06,0.23l-0.74 0 0 5.58c0,0.48 -0.08,0.84 -0.25,1.07 -0.16,0.23 -0.41,0.35 -0.75,0.35 -0.33,0 -0.58,-0.12 -0.75,-0.35 -0.16,-0.23 -0.24,-0.59 -0.24,-1.07l0 -5.58z"/>
    <path id="1" class="fil6" d="M41.54 289.89c0.2,-0.21 0.44,-0.37 0.69,-0.47 0.26,-0.09 0.58,-0.14 0.97,-0.14 0.76,0 1.35,0.22 1.75,0.66 0.4,0.43 0.61,1.07 0.61,1.9l0 2.78c0,0.48 -0.08,0.83 -0.24,1.06 -0.16,0.24 -0.41,0.35 -0.73,0.35 -0.33,0 -0.58,-0.11 -0.74,-0.35 -0.16,-0.23 -0.24,-0.58 -0.24,-1.06l0 -2.19c0,-0.54 -0.08,-0.93 -0.24,-1.16 -0.16,-0.23 -0.43,-0.34 -0.8,-0.34 -0.35,0 -0.61,0.12 -0.78,0.35 -0.17,0.24 -0.25,0.62 -0.25,1.12l0 2.22c0,0.48 -0.08,0.83 -0.24,1.06 -0.17,0.24 -0.41,0.35 -0.74,0.35 -0.33,0 -0.57,-0.11 -0.73,-0.35 -0.16,-0.23 -0.24,-0.58 -0.24,-1.06l0 -6.64c0,-0.48 0.08,-0.84 0.24,-1.07 0.16,-0.23 0.4,-0.35 0.73,-0.35 0.33,0 0.57,0.12 0.74,0.36 0.16,0.23 0.24,0.59 0.24,1.06l0 1.91z"/>
    <path id="2" class="fil6" d="M48.42 291.95l2.56 0c-0.03,-0.33 -0.16,-0.61 -0.4,-0.83 -0.24,-0.22 -0.52,-0.33 -0.85,-0.33 -0.33,0 -0.62,0.11 -0.85,0.32 -0.24,0.21 -0.39,0.49 -0.46,0.84zm0.03 1.27c0.04,0.36 0.19,0.64 0.44,0.85 0.26,0.2 0.6,0.3 1.02,0.3 0.36,0 0.77,-0.1 1.22,-0.31 0.44,-0.21 0.72,-0.32 0.82,-0.32 0.23,0 0.42,0.07 0.56,0.21 0.14,0.15 0.22,0.32 0.22,0.54 0,0.42 -0.3,0.79 -0.88,1.13 -0.58,0.33 -1.26,0.5 -2.04,0.5 -0.96,0 -1.76,-0.33 -2.4,-0.98 -0.64,-0.65 -0.96,-1.47 -0.96,-2.46 0,-0.99 0.32,-1.81 0.94,-2.47 0.62,-0.66 1.4,-0.99 2.32,-0.99 0.9,0 1.65,0.31 2.26,0.93 0.6,0.62 0.9,1.38 0.9,2.28 0,0.29 -0.06,0.49 -0.2,0.61 -0.13,0.12 -0.38,0.18 -0.76,0.18l-3.46 0z"/>
    <path id="3" class="fil6" d="M64.56 290.14c0.08,-0.26 0.19,-0.45 0.35,-0.59 0.15,-0.14 0.34,-0.21 0.56,-0.21 0.27,0 0.49,0.09 0.66,0.26 0.17,0.18 0.25,0.41 0.25,0.69 0,0.08 -0.01,0.16 -0.03,0.25 -0.02,0.09 -0.06,0.22 -0.11,0.39l-1.49 4.23c-0.13,0.34 -0.27,0.59 -0.44,0.73 -0.17,0.14 -0.4,0.22 -0.67,0.22 -0.29,0 -0.54,-0.09 -0.74,-0.26 -0.2,-0.17 -0.34,-0.42 -0.43,-0.75l-0.8 -3.09 -0.75 3.15c-0.07,0.29 -0.21,0.53 -0.4,0.69 -0.19,0.17 -0.43,0.26 -0.71,0.26 -0.29,0 -0.53,-0.08 -0.7,-0.23 -0.18,-0.15 -0.33,-0.41 -0.47,-0.78l-1.54 -4.3c-0.03,-0.1 -0.06,-0.2 -0.08,-0.28 -0.02,-0.09 -0.02,-0.17 -0.02,-0.24 0,-0.27 0.08,-0.5 0.26,-0.69 0.18,-0.18 0.4,-0.27 0.67,-0.27 0.24,0 0.45,0.07 0.61,0.23 0.17,0.16 0.29,0.4 0.38,0.72l1.03 3.54 0.83 -3.56c0.06,-0.28 0.17,-0.5 0.33,-0.65 0.15,-0.15 0.34,-0.22 0.56,-0.22 0.25,0 0.46,0.07 0.62,0.23 0.17,0.15 0.29,0.38 0.37,0.67l0.88 3.47 1.02 -3.61z"/>
    <path id="4" class="fil6" d="M68.6 291.95l2.56 0c-0.02,-0.33 -0.15,-0.61 -0.39,-0.83 -0.24,-0.22 -0.53,-0.33 -0.86,-0.33 -0.33,0 -0.61,0.11 -0.85,0.32 -0.24,0.21 -0.39,0.49 -0.46,0.84zm0.03 1.27c0.04,0.36 0.19,0.64 0.45,0.85 0.25,0.2 0.59,0.3 1.01,0.3 0.37,0 0.77,-0.1 1.22,-0.31 0.44,-0.21 0.72,-0.32 0.82,-0.32 0.23,0 0.42,0.07 0.56,0.21 0.15,0.15 0.22,0.32 0.22,0.54 0,0.42 -0.29,0.79 -0.87,1.13 -0.58,0.33 -1.26,0.5 -2.05,0.5 -0.96,0 -1.75,-0.33 -2.39,-0.98 -0.64,-0.65 -0.96,-1.47 -0.96,-2.46 0,-0.99 0.31,-1.81 0.93,-2.47 0.62,-0.66 1.4,-0.99 2.33,-0.99 0.89,0 1.65,0.31 2.25,0.93 0.6,0.62 0.91,1.38 0.91,2.28 0,0.29 -0.07,0.49 -0.2,0.61 -0.14,0.12 -0.39,0.18 -0.77,0.18l-3.46 0z"/>
    <path id="5" class="fil6" d="M75.81 292.64c0,0.49 0.12,0.88 0.36,1.18 0.24,0.29 0.55,0.44 0.92,0.44 0.37,0 0.68,-0.15 0.92,-0.45 0.24,-0.3 0.36,-0.69 0.36,-1.17 0,-0.49 -0.12,-0.89 -0.36,-1.19 -0.24,-0.31 -0.54,-0.46 -0.92,-0.46 -0.37,0 -0.68,0.15 -0.92,0.45 -0.24,0.31 -0.36,0.7 -0.36,1.2zm0.04 -2.89c0.21,-0.19 0.44,-0.33 0.7,-0.42 0.25,-0.09 0.53,-0.14 0.82,-0.14 0.84,0 1.54,0.34 2.12,1 0.57,0.66 0.86,1.49 0.86,2.48 0,0.94 -0.29,1.74 -0.88,2.4 -0.59,0.67 -1.29,1 -2.1,1 -0.32,0 -0.61,-0.06 -0.88,-0.17 -0.27,-0.11 -0.5,-0.28 -0.69,-0.49 -0.12,0.21 -0.26,0.36 -0.41,0.47 -0.16,0.1 -0.33,0.15 -0.52,0.15 -0.33,0 -0.57,-0.11 -0.73,-0.35 -0.16,-0.23 -0.24,-0.58 -0.24,-1.06l0 -6.64c0,-0.48 0.08,-0.84 0.24,-1.07 0.16,-0.23 0.4,-0.35 0.73,-0.35 0.33,0 0.58,0.12 0.74,0.35 0.16,0.23 0.24,0.59 0.24,1.07l0 1.77z"/>
    <path id="6" class="fil6" d="M83.17 296.13c-0.69,0 -1.27,-0.14 -1.72,-0.41 -0.45,-0.28 -0.68,-0.62 -0.68,-1.03 0,-0.24 0.07,-0.45 0.21,-0.62 0.15,-0.17 0.32,-0.25 0.53,-0.25 0.2,0 0.5,0.09 0.9,0.28 0.39,0.19 0.69,0.28 0.89,0.28 0.16,0 0.29,-0.03 0.39,-0.11 0.1,-0.08 0.15,-0.17 0.15,-0.28 0,-0.19 -0.31,-0.41 -0.93,-0.66l-0.13 -0.05c-0.71,-0.3 -1.19,-0.59 -1.45,-0.88 -0.26,-0.29 -0.39,-0.66 -0.39,-1.1 0,-0.6 0.23,-1.1 0.69,-1.5 0.46,-0.4 1.04,-0.59 1.74,-0.59 0.63,0 1.17,0.13 1.61,0.4 0.44,0.27 0.66,0.58 0.66,0.95 0,0.23 -0.08,0.42 -0.23,0.58 -0.16,0.15 -0.35,0.23 -0.57,0.23 -0.15,0 -0.4,-0.08 -0.76,-0.23 -0.35,-0.16 -0.62,-0.24 -0.81,-0.24 -0.13,0 -0.24,0.03 -0.32,0.1 -0.08,0.06 -0.12,0.14 -0.12,0.24 0,0.18 0.26,0.37 0.78,0.56 0.24,0.1 0.43,0.17 0.57,0.24 0.58,0.26 0.99,0.53 1.24,0.82 0.24,0.29 0.37,0.64 0.37,1.06 0,0.63 -0.25,1.15 -0.75,1.58 -0.49,0.42 -1.12,0.63 -1.87,0.63z"/>
    <path id="7" class="fil6" d="M86.57 287.68c0,-0.3 0.11,-0.57 0.33,-0.79 0.22,-0.22 0.49,-0.33 0.79,-0.33 0.31,0 0.57,0.11 0.79,0.33 0.21,0.22 0.32,0.49 0.32,0.79 0,0.32 -0.11,0.58 -0.32,0.8 -0.22,0.21 -0.48,0.32 -0.79,0.32 -0.31,0 -0.58,-0.11 -0.79,-0.32 -0.22,-0.22 -0.33,-0.48 -0.33,-0.8zm2.08 6.94c0,0.48 -0.08,0.84 -0.23,1.07 -0.16,0.23 -0.4,0.34 -0.73,0.34 -0.32,0 -0.57,-0.11 -0.73,-0.35 -0.16,-0.23 -0.24,-0.58 -0.24,-1.06l0 -3.9c0,-0.47 0.08,-0.83 0.24,-1.06 0.16,-0.23 0.4,-0.34 0.73,-0.34 0.33,0 0.57,0.11 0.73,0.34 0.15,0.23 0.23,0.59 0.23,1.06l0 3.9z"/>
    <path id="8" class="fil6" d="M90.43 291.19l-0.07 0c-0.34,0 -0.61,-0.08 -0.8,-0.23 -0.2,-0.15 -0.3,-0.35 -0.3,-0.61 0,-0.26 0.1,-0.47 0.3,-0.61 0.19,-0.14 0.48,-0.23 0.87,-0.25l0 -0.85c0,-0.48 0.08,-0.83 0.24,-1.07 0.16,-0.23 0.41,-0.34 0.73,-0.34 0.33,0 0.57,0.11 0.73,0.34 0.15,0.24 0.23,0.59 0.23,1.07l0 0.85 0.17 0c0.39,0 0.69,0.07 0.9,0.23 0.22,0.15 0.32,0.36 0.32,0.63 0,0.28 -0.1,0.49 -0.31,0.63 -0.2,0.14 -0.51,0.21 -0.92,0.21l-0.16 0 0 3.43c0,0.48 -0.07,0.84 -0.23,1.07 -0.16,0.23 -0.4,0.34 -0.73,0.34 -0.32,0 -0.57,-0.11 -0.73,-0.35 -0.16,-0.23 -0.24,-0.58 -0.24,-1.06l0 -3.43z"/>
    <path id="9" class="fil6" d="M95.72 291.95l2.56 0c-0.03,-0.33 -0.16,-0.61 -0.4,-0.83 -0.24,-0.22 -0.52,-0.33 -0.86,-0.33 -0.32,0 -0.61,0.11 -0.84,0.32 -0.24,0.21 -0.39,0.49 -0.46,0.84zm0.03 1.27c0.04,0.36 0.19,0.64 0.44,0.85 0.26,0.2 0.6,0.3 1.02,0.3 0.36,0 0.77,-0.1 1.21,-0.31 0.45,-0.21 0.73,-0.32 0.83,-0.32 0.23,0 0.42,0.07 0.56,0.21 0.14,0.15 0.22,0.32 0.22,0.54 0,0.42 -0.3,0.79 -0.88,1.13 -0.58,0.33 -1.26,0.5 -2.04,0.5 -0.96,0 -1.76,-0.33 -2.4,-0.98 -0.64,-0.65 -0.96,-1.47 -0.96,-2.46 0,-0.99 0.31,-1.81 0.94,-2.47 0.62,-0.66 1.4,-0.99 2.32,-0.99 0.9,0 1.65,0.31 2.26,0.93 0.6,0.62 0.9,1.38 0.9,2.28 0,0.29 -0.06,0.49 -0.2,0.61 -0.13,0.12 -0.38,0.18 -0.76,0.18l-3.46 0z"/>
    <path id="10" class="fil6" d="M104.92 287.68c0,-0.3 0.11,-0.57 0.33,-0.79 0.22,-0.22 0.49,-0.33 0.79,-0.33 0.31,0 0.57,0.11 0.79,0.33 0.21,0.22 0.32,0.49 0.32,0.79 0,0.32 -0.11,0.58 -0.32,0.8 -0.22,0.21 -0.48,0.32 -0.79,0.32 -0.31,0 -0.58,-0.11 -0.79,-0.32 -0.22,-0.22 -0.33,-0.48 -0.33,-0.8zm2.08 6.94c0,0.48 -0.08,0.84 -0.23,1.07 -0.16,0.23 -0.4,0.34 -0.73,0.34 -0.32,0 -0.57,-0.11 -0.73,-0.35 -0.16,-0.23 -0.24,-0.58 -0.24,-1.06l0 -3.9c0,-0.47 0.08,-0.83 0.24,-1.06 0.16,-0.23 0.4,-0.34 0.73,-0.34 0.33,0 0.57,0.11 0.73,0.34 0.15,0.23 0.23,0.59 0.23,1.06l0 3.9z"/>
    <path id="11" class="fil6" d="M110.25 296.13c-0.69,0 -1.27,-0.14 -1.72,-0.41 -0.45,-0.28 -0.68,-0.62 -0.68,-1.03 0,-0.24 0.07,-0.45 0.21,-0.62 0.15,-0.17 0.32,-0.25 0.53,-0.25 0.2,0 0.5,0.09 0.9,0.28 0.39,0.19 0.69,0.28 0.89,0.28 0.16,0 0.29,-0.03 0.39,-0.11 0.1,-0.08 0.15,-0.17 0.15,-0.28 0,-0.19 -0.31,-0.41 -0.93,-0.66l-0.13 -0.05c-0.71,-0.3 -1.19,-0.59 -1.45,-0.88 -0.26,-0.29 -0.39,-0.66 -0.39,-1.1 0,-0.6 0.23,-1.1 0.69,-1.5 0.46,-0.4 1.04,-0.59 1.74,-0.59 0.63,0 1.17,0.13 1.61,0.4 0.44,0.27 0.66,0.58 0.66,0.95 0,0.23 -0.08,0.42 -0.23,0.58 -0.16,0.15 -0.35,0.23 -0.57,0.23 -0.15,0 -0.4,-0.08 -0.76,-0.23 -0.35,-0.16 -0.62,-0.24 -0.81,-0.24 -0.13,0 -0.23,0.03 -0.31,0.1 -0.08,0.06 -0.13,0.14 -0.13,0.24 0,0.18 0.26,0.37 0.78,0.56 0.24,0.1 0.43,0.17 0.57,0.24 0.58,0.26 0.99,0.53 1.24,0.82 0.24,0.29 0.37,0.64 0.37,1.06 0,0.63 -0.25,1.15 -0.75,1.58 -0.49,0.42 -1.12,0.63 -1.87,0.63z"/>
    <path id="12" class="fil6" d="M171.51 293.3l0 -2.58c0,-0.47 0.08,-0.83 0.24,-1.06 0.16,-0.23 0.4,-0.34 0.73,-0.34 0.32,0 0.56,0.11 0.72,0.34 0.16,0.23 0.24,0.59 0.24,1.06l0 2.19c0,0.51 0.08,0.88 0.23,1.09 0.16,0.22 0.41,0.32 0.76,0.32 0.36,0 0.61,-0.1 0.77,-0.32 0.15,-0.21 0.23,-0.58 0.23,-1.09l0 -2.19c0,-0.47 0.08,-0.83 0.24,-1.06 0.16,-0.23 0.4,-0.34 0.73,-0.34 0.33,0 0.57,0.11 0.73,0.34 0.15,0.23 0.23,0.58 0.23,1.06l0 2.58c0,0.92 -0.25,1.63 -0.75,2.11 -0.5,0.49 -1.22,0.73 -2.17,0.73 -0.95,0 -1.68,-0.24 -2.18,-0.73 -0.5,-0.48 -0.75,-1.19 -0.75,-2.11z"/>
    <path id="13" class="fil6" d="M178.67 294.62l0 -3.9c0,-0.47 0.08,-0.83 0.24,-1.06 0.15,-0.23 0.4,-0.34 0.73,-0.34 0.19,0 0.37,0.05 0.52,0.15 0.15,0.1 0.29,0.26 0.4,0.47 0.21,-0.23 0.45,-0.4 0.72,-0.5 0.28,-0.11 0.61,-0.16 0.99,-0.16 0.77,0 1.35,0.22 1.76,0.66 0.4,0.43 0.6,1.07 0.6,1.9l0 2.78c0,0.48 -0.08,0.83 -0.24,1.06 -0.16,0.24 -0.4,0.35 -0.73,0.35 -0.33,0 -0.57,-0.11 -0.73,-0.35 -0.16,-0.23 -0.24,-0.58 -0.24,-1.06l0 -2.19c0,-0.54 -0.08,-0.93 -0.24,-1.16 -0.17,-0.23 -0.43,-0.34 -0.81,-0.34 -0.35,0 -0.61,0.12 -0.78,0.35 -0.16,0.24 -0.25,0.62 -0.25,1.12l0 2.22c0,0.48 -0.08,0.83 -0.24,1.06 -0.16,0.24 -0.4,0.35 -0.73,0.35 -0.33,0 -0.58,-0.11 -0.73,-0.35 -0.16,-0.23 -0.24,-0.58 -0.24,-1.06z"/>
    <path id="14" class="fil6" d="M187.52 292.64c0,0.48 0.12,0.87 0.36,1.17 0.24,0.3 0.55,0.45 0.92,0.45 0.37,0 0.68,-0.15 0.91,-0.45 0.24,-0.3 0.36,-0.69 0.36,-1.17 0,-0.5 -0.12,-0.89 -0.36,-1.2 -0.23,-0.3 -0.53,-0.45 -0.91,-0.45 -0.38,0 -0.68,0.15 -0.92,0.46 -0.24,0.3 -0.36,0.7 -0.36,1.19zm2.57 2.77c-0.2,0.21 -0.43,0.38 -0.7,0.49 -0.27,0.11 -0.56,0.17 -0.87,0.17 -0.81,0 -1.52,-0.34 -2.11,-1.01 -0.59,-0.67 -0.88,-1.49 -0.88,-2.45 0,-0.96 0.29,-1.77 0.87,-2.43 0.58,-0.66 1.29,-0.99 2.12,-0.99 0.3,0 0.57,0.05 0.82,0.14 0.25,0.09 0.48,0.23 0.7,0.42l0 -1.77c0,-0.48 0.08,-0.84 0.24,-1.07 0.16,-0.23 0.4,-0.35 0.74,-0.35 0.32,0 0.56,0.12 0.72,0.35 0.15,0.24 0.23,0.59 0.23,1.07l0 6.64c0,0.48 -0.07,0.84 -0.23,1.07 -0.16,0.23 -0.4,0.34 -0.72,0.34 -0.2,0 -0.37,-0.05 -0.53,-0.16 -0.15,-0.1 -0.29,-0.26 -0.4,-0.46z"/>
    <path id="15" class="fil6" d="M194.9 291.95l2.56 0c-0.03,-0.33 -0.16,-0.61 -0.4,-0.83 -0.24,-0.22 -0.52,-0.33 -0.86,-0.33 -0.32,0 -0.61,0.11 -0.84,0.32 -0.24,0.21 -0.39,0.49 -0.46,0.84zm0.03 1.27c0.04,0.36 0.19,0.64 0.44,0.85 0.26,0.2 0.6,0.3 1.02,0.3 0.36,0 0.77,-0.1 1.21,-0.31 0.45,-0.21 0.73,-0.32 0.83,-0.32 0.23,0 0.41,0.07 0.56,0.21 0.14,0.15 0.22,0.32 0.22,0.54 0,0.42 -0.3,0.79 -0.88,1.13 -0.58,0.33 -1.26,0.5 -2.04,0.5 -0.96,0 -1.76,-0.33 -2.4,-0.98 -0.64,-0.65 -0.96,-1.47 -0.96,-2.46 0,-0.99 0.31,-1.81 0.94,-2.47 0.62,-0.66 1.4,-0.99 2.32,-0.99 0.9,0 1.65,0.31 2.26,0.93 0.6,0.62 0.9,1.38 0.9,2.28 0,0.29 -0.06,0.49 -0.2,0.61 -0.13,0.12 -0.38,0.18 -0.76,0.18l-3.46 0z"/>
    <path id="16" class="fil6" d="M200.2 294.62l0 -3.9c0,-0.47 0.08,-0.83 0.24,-1.06 0.16,-0.23 0.4,-0.34 0.73,-0.34 0.2,0 0.37,0.05 0.52,0.15 0.16,0.1 0.29,0.26 0.41,0.47 0.2,-0.22 0.41,-0.39 0.63,-0.49 0.23,-0.11 0.45,-0.17 0.68,-0.17 0.27,0 0.5,0.09 0.69,0.28 0.2,0.2 0.3,0.42 0.3,0.68 0,0.39 -0.36,0.71 -1.07,0.97 -0.26,0.1 -0.45,0.17 -0.58,0.23 -0.24,0.12 -0.4,0.25 -0.48,0.39 -0.08,0.14 -0.13,0.4 -0.13,0.77l0 2.02c0,0.48 -0.08,0.83 -0.24,1.06 -0.16,0.24 -0.4,0.35 -0.73,0.35 -0.33,0 -0.57,-0.11 -0.73,-0.35 -0.16,-0.23 -0.24,-0.58 -0.24,-1.06z"/>
    <path id="17" class="fil6" d="M210.47 292.64c0,0.48 0.12,0.87 0.36,1.17 0.24,0.3 0.55,0.45 0.92,0.45 0.37,0 0.68,-0.15 0.91,-0.45 0.24,-0.3 0.36,-0.69 0.36,-1.17 0,-0.5 -0.12,-0.89 -0.36,-1.2 -0.23,-0.3 -0.53,-0.45 -0.91,-0.45 -0.38,0 -0.68,0.15 -0.92,0.46 -0.24,0.3 -0.36,0.7 -0.36,1.19zm2.57 2.77c-0.2,0.21 -0.43,0.38 -0.7,0.49 -0.27,0.11 -0.56,0.17 -0.87,0.17 -0.81,0 -1.52,-0.34 -2.11,-1.01 -0.59,-0.67 -0.88,-1.49 -0.88,-2.45 0,-0.96 0.29,-1.77 0.87,-2.43 0.58,-0.66 1.29,-0.99 2.12,-0.99 0.3,0 0.57,0.05 0.82,0.14 0.25,0.09 0.48,0.23 0.7,0.42l0 -1.77c0,-0.48 0.08,-0.84 0.24,-1.07 0.16,-0.23 0.4,-0.35 0.74,-0.35 0.32,0 0.56,0.12 0.72,0.35 0.15,0.24 0.23,0.59 0.23,1.07l0 6.64c0,0.48 -0.07,0.84 -0.23,1.07 -0.16,0.23 -0.4,0.34 -0.72,0.34 -0.2,0 -0.37,-0.05 -0.53,-0.16 -0.15,-0.1 -0.29,-0.26 -0.4,-0.46z"/>
    <path id="18" class="fil6" d="M217.85 291.95l2.56 0c-0.03,-0.33 -0.16,-0.61 -0.4,-0.83 -0.24,-0.22 -0.52,-0.33 -0.86,-0.33 -0.32,0 -0.61,0.11 -0.84,0.32 -0.24,0.21 -0.39,0.49 -0.46,0.84zm0.03 1.27c0.04,0.36 0.19,0.64 0.44,0.85 0.26,0.2 0.6,0.3 1.02,0.3 0.36,0 0.77,-0.1 1.21,-0.31 0.45,-0.21 0.73,-0.32 0.83,-0.32 0.23,0 0.41,0.07 0.56,0.21 0.14,0.15 0.22,0.32 0.22,0.54 0,0.42 -0.3,0.79 -0.88,1.13 -0.58,0.33 -1.26,0.5 -2.04,0.5 -0.96,0 -1.76,-0.33 -2.4,-0.98 -0.64,-0.65 -0.96,-1.47 -0.96,-2.46 0,-0.99 0.31,-1.81 0.94,-2.47 0.62,-0.66 1.4,-0.99 2.32,-0.99 0.9,0 1.65,0.31 2.26,0.93 0.6,0.62 0.9,1.38 0.9,2.28 0,0.29 -0.06,0.49 -0.2,0.61 -0.13,0.12 -0.38,0.18 -0.76,0.18l-3.46 0z"/>
    <path id="19" class="fil6" d="M224.23 295.1l-1.68 -4.29c-0.04,-0.1 -0.07,-0.2 -0.09,-0.29 -0.01,-0.08 -0.02,-0.17 -0.02,-0.24 0,-0.27 0.09,-0.5 0.26,-0.69 0.18,-0.18 0.4,-0.27 0.67,-0.27 0.24,0 0.44,0.07 0.6,0.22 0.16,0.15 0.29,0.39 0.4,0.73l1.05 3.36 1.05 -3.49c0.08,-0.27 0.2,-0.46 0.35,-0.6 0.15,-0.13 0.34,-0.2 0.56,-0.2 0.27,0 0.49,0.09 0.66,0.26 0.17,0.18 0.25,0.41 0.25,0.69 0,0.09 -0.01,0.19 -0.03,0.29 -0.03,0.11 -0.07,0.22 -0.12,0.35l-1.63 4.23c-0.14,0.36 -0.29,0.61 -0.46,0.74 -0.16,0.14 -0.38,0.21 -0.65,0.21 -0.28,0 -0.51,-0.07 -0.68,-0.21 -0.17,-0.14 -0.33,-0.41 -0.49,-0.8z"/>
    <path id="20" class="fil6" d="M230.43 291.95l2.56 0c-0.03,-0.33 -0.16,-0.61 -0.4,-0.83 -0.24,-0.22 -0.52,-0.33 -0.86,-0.33 -0.32,0 -0.61,0.11 -0.84,0.32 -0.24,0.21 -0.39,0.49 -0.46,0.84zm0.03 1.27c0.04,0.36 0.19,0.64 0.44,0.85 0.26,0.2 0.6,0.3 1.02,0.3 0.36,0 0.77,-0.1 1.21,-0.31 0.45,-0.21 0.73,-0.32 0.83,-0.32 0.23,0 0.41,0.07 0.56,0.21 0.14,0.15 0.22,0.32 0.22,0.54 0,0.42 -0.3,0.79 -0.88,1.13 -0.58,0.33 -1.26,0.5 -2.04,0.5 -0.96,0 -1.76,-0.33 -2.4,-0.98 -0.64,-0.65 -0.96,-1.47 -0.96,-2.46 0,-0.99 0.31,-1.81 0.94,-2.47 0.62,-0.66 1.4,-0.99 2.32,-0.99 0.9,0 1.65,0.31 2.26,0.93 0.6,0.62 0.9,1.38 0.9,2.28 0,0.29 -0.06,0.49 -0.2,0.61 -0.13,0.12 -0.38,0.18 -0.76,0.18l-3.46 0z"/>
    <path id="21" class="fil6" d="M235.79 287.98c0,-0.48 0.08,-0.84 0.24,-1.07 0.16,-0.23 0.41,-0.35 0.74,-0.35 0.32,0 0.56,0.12 0.72,0.35 0.15,0.24 0.23,0.59 0.23,1.07l0 6.64c0,0.48 -0.07,0.84 -0.23,1.07 -0.16,0.23 -0.4,0.34 -0.72,0.34 -0.33,0 -0.58,-0.11 -0.74,-0.35 -0.16,-0.23 -0.24,-0.58 -0.24,-1.06l0 -6.64z"/>
    <path id="22" class="fil6" d="M240.73 292.65c0,0.49 0.12,0.89 0.36,1.19 0.24,0.31 0.54,0.46 0.92,0.46 0.39,0 0.69,-0.15 0.93,-0.46 0.23,-0.3 0.35,-0.7 0.35,-1.19 0,-0.48 -0.12,-0.87 -0.36,-1.17 -0.24,-0.3 -0.55,-0.45 -0.92,-0.45 -0.37,0 -0.68,0.15 -0.92,0.45 -0.24,0.3 -0.36,0.69 -0.36,1.17zm-2 0.02c0,-1.01 0.31,-1.84 0.93,-2.49 0.62,-0.65 1.4,-0.97 2.35,-0.97 0.96,0 1.74,0.32 2.36,0.97 0.61,0.65 0.92,1.48 0.92,2.49 0,1.02 -0.31,1.85 -0.92,2.5 -0.62,0.65 -1.4,0.97 -2.36,0.97 -0.95,0 -1.73,-0.32 -2.35,-0.98 -0.62,-0.65 -0.93,-1.48 -0.93,-2.49z"/>
    <path id="23" class="fil6" d="M248.15 292.7c0,0.49 0.12,0.89 0.36,1.19 0.23,0.31 0.54,0.46 0.92,0.46 0.38,0 0.69,-0.15 0.92,-0.46 0.24,-0.3 0.36,-0.7 0.36,-1.19 0,-0.48 -0.12,-0.87 -0.36,-1.17 -0.25,-0.3 -0.55,-0.45 -0.92,-0.45 -0.37,0 -0.68,0.15 -0.92,0.45 -0.24,0.3 -0.36,0.69 -0.36,1.17zm0.04 4.54c0,0.48 -0.08,0.83 -0.24,1.06 -0.16,0.23 -0.41,0.35 -0.74,0.35 -0.33,0 -0.57,-0.12 -0.73,-0.35 -0.16,-0.23 -0.24,-0.58 -0.24,-1.06l0 -6.52c0,-0.47 0.08,-0.83 0.24,-1.06 0.16,-0.23 0.4,-0.34 0.73,-0.34 0.2,0 0.38,0.05 0.53,0.15 0.15,0.1 0.28,0.26 0.4,0.47 0.2,-0.23 0.44,-0.39 0.71,-0.5 0.26,-0.12 0.56,-0.17 0.89,-0.17 0.83,0 1.53,0.32 2.1,0.97 0.56,0.65 0.85,1.46 0.85,2.43 0,0.97 -0.29,1.79 -0.87,2.47 -0.59,0.68 -1.29,1.02 -2.11,1.02 -0.29,0 -0.56,-0.05 -0.81,-0.15 -0.25,-0.09 -0.49,-0.23 -0.71,-0.42l0 1.65z"/>
    <path id="24" class="fil6" d="M253.65 294.62l0 -3.9c0,-0.48 0.08,-0.84 0.24,-1.07 0.16,-0.24 0.4,-0.36 0.73,-0.36 0.19,0 0.36,0.06 0.51,0.16 0.16,0.11 0.29,0.27 0.42,0.48 0.19,-0.22 0.42,-0.38 0.67,-0.48 0.26,-0.11 0.54,-0.16 0.87,-0.16 0.42,0 0.79,0.08 1.11,0.23 0.32,0.15 0.59,0.38 0.83,0.68 0.29,-0.32 0.59,-0.55 0.89,-0.69 0.3,-0.15 0.66,-0.22 1.06,-0.22 0.69,0 1.23,0.22 1.61,0.67 0.39,0.44 0.58,1.07 0.58,1.88l0 2.78c0,0.48 -0.08,0.83 -0.24,1.06 -0.16,0.24 -0.41,0.35 -0.73,0.35 -0.33,0 -0.57,-0.11 -0.73,-0.34 -0.15,-0.23 -0.23,-0.59 -0.23,-1.07l0 -2.2c0,-0.5 -0.07,-0.88 -0.22,-1.11 -0.14,-0.24 -0.36,-0.36 -0.67,-0.36 -0.33,0 -0.58,0.12 -0.74,0.35 -0.15,0.23 -0.23,0.6 -0.23,1.1l0 2.22c0,0.48 -0.08,0.83 -0.24,1.06 -0.16,0.24 -0.4,0.35 -0.73,0.35 -0.33,0 -0.57,-0.11 -0.73,-0.35 -0.16,-0.23 -0.24,-0.58 -0.24,-1.06l0 -2.2c0,-0.51 -0.07,-0.88 -0.21,-1.11 -0.14,-0.24 -0.36,-0.36 -0.66,-0.36 -0.34,0 -0.59,0.12 -0.74,0.35 -0.16,0.23 -0.24,0.6 -0.24,1.1l0 2.22c0,0.48 -0.08,0.83 -0.24,1.06 -0.16,0.24 -0.4,0.35 -0.73,0.35 -0.33,0 -0.58,-0.11 -0.73,-0.35 -0.16,-0.23 -0.24,-0.58 -0.24,-1.06z"/>
    <path id="25" class="fil6" d="M266.03 291.95l2.56 0c-0.02,-0.33 -0.15,-0.61 -0.39,-0.83 -0.24,-0.22 -0.53,-0.33 -0.86,-0.33 -0.33,0 -0.61,0.11 -0.85,0.32 -0.24,0.21 -0.39,0.49 -0.46,0.84zm0.03 1.27c0.04,0.36 0.19,0.64 0.45,0.85 0.25,0.2 0.59,0.3 1.01,0.3 0.37,0 0.77,-0.1 1.22,-0.31 0.44,-0.21 0.72,-0.32 0.82,-0.32 0.23,0 0.42,0.07 0.56,0.21 0.15,0.15 0.22,0.32 0.22,0.54 0,0.42 -0.29,0.79 -0.87,1.13 -0.58,0.33 -1.26,0.5 -2.05,0.5 -0.96,0 -1.75,-0.33 -2.39,-0.98 -0.64,-0.65 -0.96,-1.47 -0.96,-2.46 0,-0.99 0.31,-1.81 0.93,-2.47 0.62,-0.66 1.4,-0.99 2.33,-0.99 0.89,0 1.65,0.31 2.25,0.93 0.61,0.62 0.91,1.38 0.91,2.28 0,0.29 -0.07,0.49 -0.2,0.61 -0.14,0.12 -0.39,0.18 -0.77,0.18l-3.46 0z"/>
    <path id="26" class="fil6" d="M271.33 294.62l0 -3.9c0,-0.47 0.08,-0.83 0.24,-1.06 0.16,-0.23 0.4,-0.34 0.73,-0.34 0.2,0 0.38,0.05 0.53,0.15 0.15,0.1 0.28,0.26 0.4,0.47 0.21,-0.23 0.45,-0.4 0.72,-0.5 0.27,-0.11 0.6,-0.16 0.99,-0.16 0.77,0 1.35,0.22 1.75,0.66 0.41,0.43 0.61,1.07 0.61,1.9l0 2.78c0,0.48 -0.08,0.83 -0.24,1.06 -0.16,0.24 -0.4,0.35 -0.73,0.35 -0.33,0 -0.57,-0.11 -0.73,-0.35 -0.16,-0.23 -0.24,-0.58 -0.24,-1.06l0 -2.19c0,-0.54 -0.09,-0.93 -0.25,-1.16 -0.16,-0.23 -0.43,-0.34 -0.8,-0.34 -0.35,0 -0.61,0.12 -0.78,0.35 -0.17,0.24 -0.25,0.62 -0.25,1.12l0 2.22c0,0.48 -0.08,0.83 -0.24,1.06 -0.16,0.24 -0.41,0.35 -0.74,0.35 -0.33,0 -0.57,-0.11 -0.73,-0.35 -0.16,-0.23 -0.24,-0.58 -0.24,-1.06z"/>
    <path id="27" class="fil6" d="M278.97 291.19l-0.07 0c-0.34,0 -0.61,-0.08 -0.8,-0.23 -0.2,-0.15 -0.3,-0.35 -0.3,-0.61 0,-0.26 0.1,-0.47 0.3,-0.61 0.19,-0.14 0.48,-0.23 0.87,-0.25l0 -0.85c0,-0.48 0.08,-0.83 0.24,-1.07 0.16,-0.23 0.4,-0.34 0.73,-0.34 0.33,0 0.57,0.11 0.72,0.34 0.16,0.24 0.24,0.59 0.24,1.07l0 0.85 0.17 0c0.39,0 0.68,0.07 0.9,0.23 0.21,0.15 0.32,0.36 0.32,0.63 0,0.28 -0.1,0.49 -0.31,0.63 -0.21,0.14 -0.51,0.21 -0.92,0.21l-0.16 0 0 3.43c0,0.48 -0.08,0.84 -0.23,1.07 -0.16,0.23 -0.4,0.34 -0.73,0.34 -0.33,0 -0.57,-0.11 -0.73,-0.35 -0.16,-0.23 -0.24,-0.58 -0.24,-1.06l0 -3.43z"/>
    <path id="28" class="fil6" d="M290.84 295.36c-0.2,0.24 -0.43,0.42 -0.71,0.55 -0.28,0.12 -0.58,0.18 -0.91,0.18 -0.83,0 -1.53,-0.32 -2.09,-0.97 -0.57,-0.66 -0.85,-1.47 -0.85,-2.45 0,-0.96 0.29,-1.78 0.88,-2.44 0.58,-0.66 1.29,-0.99 2.13,-0.99 0.33,0 0.62,0.06 0.87,0.17 0.26,0.11 0.48,0.29 0.68,0.53 0.11,-0.21 0.25,-0.36 0.4,-0.47 0.16,-0.1 0.33,-0.15 0.53,-0.15 0.32,0 0.56,0.11 0.72,0.34 0.16,0.23 0.23,0.58 0.23,1.06l0 3.9c0,0.48 -0.08,0.83 -0.23,1.06 -0.16,0.23 -0.4,0.35 -0.72,0.35 -0.22,0 -0.4,-0.06 -0.55,-0.16 -0.15,-0.11 -0.28,-0.28 -0.38,-0.51zm-2.56 -2.71c0,0.48 0.12,0.86 0.35,1.15 0.23,0.29 0.53,0.44 0.91,0.44 0.36,0 0.66,-0.15 0.89,-0.44 0.23,-0.3 0.35,-0.68 0.35,-1.15 0,-0.46 -0.12,-0.83 -0.35,-1.12 -0.23,-0.29 -0.53,-0.43 -0.89,-0.43 -0.37,0 -0.67,0.14 -0.91,0.43 -0.23,0.29 -0.35,0.66 -0.35,1.12z"/>
    <path id="29" class="fil6" d="M294.06 294.62l0 -3.9c0,-0.47 0.08,-0.83 0.24,-1.06 0.16,-0.23 0.4,-0.34 0.73,-0.34 0.2,0 0.37,0.05 0.53,0.15 0.15,0.1 0.28,0.26 0.4,0.47 0.21,-0.23 0.45,-0.4 0.72,-0.5 0.27,-0.11 0.6,-0.16 0.99,-0.16 0.76,0 1.35,0.22 1.75,0.66 0.41,0.43 0.61,1.07 0.61,1.9l0 2.78c0,0.48 -0.08,0.83 -0.24,1.06 -0.16,0.24 -0.4,0.35 -0.73,0.35 -0.33,0 -0.57,-0.11 -0.73,-0.35 -0.16,-0.23 -0.24,-0.58 -0.24,-1.06l0 -2.19c0,-0.54 -0.09,-0.93 -0.25,-1.16 -0.16,-0.23 -0.43,-0.34 -0.8,-0.34 -0.35,0 -0.61,0.12 -0.78,0.35 -0.17,0.24 -0.25,0.62 -0.25,1.12l0 2.22c0,0.48 -0.08,0.83 -0.24,1.06 -0.16,0.24 -0.41,0.35 -0.74,0.35 -0.33,0 -0.57,-0.11 -0.73,-0.35 -0.16,-0.23 -0.24,-0.58 -0.24,-1.06z"/>
    <path id="30" class="fil6" d="M302.92 292.64c0,0.48 0.12,0.87 0.36,1.17 0.24,0.3 0.54,0.45 0.92,0.45 0.37,0 0.67,-0.15 0.91,-0.45 0.23,-0.3 0.35,-0.69 0.35,-1.17 0,-0.5 -0.11,-0.89 -0.35,-1.2 -0.23,-0.3 -0.54,-0.45 -0.91,-0.45 -0.38,0 -0.69,0.15 -0.93,0.46 -0.23,0.3 -0.35,0.7 -0.35,1.19zm2.57 2.77c-0.2,0.21 -0.44,0.38 -0.7,0.49 -0.27,0.11 -0.56,0.17 -0.88,0.17 -0.81,0 -1.51,-0.34 -2.1,-1.01 -0.59,-0.67 -0.89,-1.49 -0.89,-2.45 0,-0.96 0.3,-1.77 0.88,-2.43 0.58,-0.66 1.28,-0.99 2.11,-0.99 0.3,0 0.58,0.05 0.83,0.14 0.24,0.09 0.48,0.23 0.7,0.42l0 -1.77c0,-0.48 0.08,-0.84 0.24,-1.07 0.15,-0.23 0.4,-0.35 0.73,-0.35 0.32,0 0.56,0.12 0.72,0.35 0.16,0.24 0.24,0.59 0.24,1.07l0 6.64c0,0.48 -0.08,0.84 -0.23,1.07 -0.16,0.23 -0.4,0.34 -0.73,0.34 -0.19,0 -0.37,-0.05 -0.52,-0.16 -0.16,-0.1 -0.29,-0.26 -0.4,-0.46z"/>
    <path id="31" class="fil6" d="M117.34 292.67c0,-1.02 0.31,-1.85 0.92,-2.48 0.62,-0.64 1.42,-0.96 2.42,-0.96 0.64,0 1.16,0.12 1.56,0.35 0.4,0.23 0.6,0.53 0.6,0.89 0,0.24 -0.07,0.44 -0.23,0.59 -0.15,0.16 -0.34,0.24 -0.57,0.24 -0.1,0 -0.3,-0.05 -0.61,-0.15 -0.3,-0.1 -0.55,-0.15 -0.75,-0.15 -0.4,0 -0.73,0.15 -0.97,0.45 -0.25,0.3 -0.37,0.7 -0.37,1.19 0,0.51 0.12,0.91 0.37,1.2 0.26,0.29 0.6,0.43 1.04,0.43 0.21,0 0.46,-0.05 0.76,-0.14 0.29,-0.1 0.48,-0.15 0.57,-0.15 0.21,0 0.39,0.08 0.53,0.24 0.15,0.16 0.22,0.36 0.22,0.6 0,0.35 -0.22,0.66 -0.65,0.91 -0.44,0.25 -0.98,0.38 -1.63,0.38 -0.95,0 -1.72,-0.32 -2.31,-0.96 -0.6,-0.63 -0.9,-1.46 -0.9,-2.48z"/>
    <path id="32" class="fil6" d="M123.53 293.3l0 -2.58c0,-0.47 0.08,-0.83 0.24,-1.06 0.16,-0.23 0.41,-0.34 0.73,-0.34 0.33,0 0.57,0.11 0.73,0.34 0.15,0.23 0.23,0.59 0.23,1.06l0 2.19c0,0.51 0.08,0.88 0.24,1.09 0.15,0.22 0.41,0.32 0.76,0.32 0.35,0 0.61,-0.1 0.76,-0.32 0.16,-0.21 0.24,-0.58 0.24,-1.09l0 -2.19c0,-0.47 0.08,-0.83 0.23,-1.06 0.16,-0.23 0.41,-0.34 0.74,-0.34 0.33,0 0.57,0.11 0.72,0.34 0.16,0.23 0.24,0.58 0.24,1.06l0 2.58c0,0.92 -0.25,1.63 -0.75,2.11 -0.5,0.49 -1.23,0.73 -2.18,0.73 -0.94,0 -1.67,-0.24 -2.17,-0.73 -0.5,-0.48 -0.76,-1.19 -0.76,-2.11z"/>
    <path id="33" class="fil6" d="M130.69 294.62l0 -3.9c0,-0.47 0.08,-0.83 0.24,-1.06 0.16,-0.23 0.4,-0.34 0.73,-0.34 0.2,0 0.37,0.05 0.53,0.15 0.15,0.1 0.28,0.26 0.4,0.47 0.2,-0.22 0.41,-0.39 0.64,-0.49 0.22,-0.11 0.45,-0.17 0.67,-0.17 0.27,0 0.5,0.09 0.7,0.28 0.19,0.2 0.29,0.42 0.29,0.68 0,0.39 -0.36,0.71 -1.07,0.97 -0.26,0.1 -0.45,0.17 -0.58,0.23 -0.24,0.12 -0.4,0.25 -0.48,0.39 -0.08,0.14 -0.12,0.4 -0.12,0.77l0 2.02c0,0.48 -0.08,0.83 -0.24,1.06 -0.17,0.24 -0.41,0.35 -0.74,0.35 -0.33,0 -0.57,-0.11 -0.73,-0.35 -0.16,-0.23 -0.24,-0.58 -0.24,-1.06z"/>
    <path id="34" class="fil6" d="M135.37 294.62l0 -3.9c0,-0.47 0.08,-0.83 0.23,-1.06 0.16,-0.23 0.4,-0.34 0.73,-0.34 0.2,0 0.38,0.05 0.53,0.15 0.15,0.1 0.28,0.26 0.4,0.47 0.2,-0.22 0.41,-0.39 0.64,-0.49 0.22,-0.11 0.45,-0.17 0.68,-0.17 0.26,0 0.49,0.09 0.69,0.28 0.19,0.2 0.29,0.42 0.29,0.68 0,0.39 -0.36,0.71 -1.07,0.97 -0.26,0.1 -0.45,0.17 -0.57,0.23 -0.25,0.12 -0.41,0.25 -0.49,0.39 -0.08,0.14 -0.12,0.4 -0.12,0.77l0 2.02c0,0.48 -0.08,0.83 -0.24,1.06 -0.16,0.24 -0.41,0.35 -0.74,0.35 -0.33,0 -0.57,-0.11 -0.73,-0.35 -0.15,-0.23 -0.23,-0.58 -0.23,-1.06z"/>
    <path id="35" class="fil6" d="M141.62 291.95l2.56 0c-0.02,-0.33 -0.15,-0.61 -0.39,-0.83 -0.24,-0.22 -0.53,-0.33 -0.86,-0.33 -0.33,0 -0.61,0.11 -0.85,0.32 -0.24,0.21 -0.39,0.49 -0.46,0.84zm0.03 1.27c0.04,0.36 0.19,0.64 0.45,0.85 0.25,0.2 0.59,0.3 1.01,0.3 0.37,0 0.77,-0.1 1.22,-0.31 0.44,-0.21 0.72,-0.32 0.82,-0.32 0.23,0 0.42,0.07 0.56,0.21 0.15,0.15 0.22,0.32 0.22,0.54 0,0.42 -0.29,0.79 -0.87,1.13 -0.58,0.33 -1.26,0.5 -2.05,0.5 -0.96,0 -1.75,-0.33 -2.39,-0.98 -0.64,-0.65 -0.96,-1.47 -0.96,-2.46 0,-0.99 0.31,-1.81 0.93,-2.47 0.62,-0.66 1.4,-0.99 2.33,-0.99 0.89,0 1.64,0.31 2.25,0.93 0.6,0.62 0.91,1.38 0.91,2.28 0,0.29 -0.07,0.49 -0.2,0.61 -0.14,0.12 -0.39,0.18 -0.77,0.18l-3.46 0z"/>
    <path id="36" class="fil6" d="M146.92 294.62l0 -3.9c0,-0.47 0.08,-0.83 0.24,-1.06 0.16,-0.23 0.4,-0.34 0.73,-0.34 0.2,0 0.37,0.05 0.53,0.15 0.15,0.1 0.28,0.26 0.4,0.47 0.21,-0.23 0.45,-0.4 0.72,-0.5 0.27,-0.11 0.6,-0.16 0.99,-0.16 0.76,0 1.35,0.22 1.75,0.66 0.41,0.43 0.61,1.07 0.61,1.9l0 2.78c0,0.48 -0.08,0.83 -0.24,1.06 -0.16,0.24 -0.4,0.35 -0.73,0.35 -0.33,0 -0.57,-0.11 -0.73,-0.35 -0.16,-0.23 -0.24,-0.58 -0.24,-1.06l0 -2.19c0,-0.54 -0.09,-0.93 -0.25,-1.16 -0.16,-0.23 -0.43,-0.34 -0.8,-0.34 -0.35,0 -0.61,0.12 -0.78,0.35 -0.17,0.24 -0.25,0.62 -0.25,1.12l0 2.22c0,0.48 -0.08,0.83 -0.24,1.06 -0.16,0.24 -0.41,0.35 -0.74,0.35 -0.33,0 -0.57,-0.11 -0.73,-0.35 -0.16,-0.23 -0.24,-0.58 -0.24,-1.06z"/>
    <path id="37" class="fil6" d="M154.56 291.19l-0.07 0c-0.34,0 -0.61,-0.08 -0.81,-0.23 -0.19,-0.15 -0.29,-0.35 -0.29,-0.61 0,-0.26 0.1,-0.47 0.29,-0.61 0.2,-0.14 0.49,-0.23 0.88,-0.25l0 -0.85c0,-0.48 0.08,-0.83 0.24,-1.07 0.16,-0.23 0.4,-0.34 0.73,-0.34 0.33,0 0.57,0.11 0.72,0.34 0.16,0.24 0.24,0.59 0.24,1.07l0 0.85 0.17 0c0.38,0 0.68,0.07 0.9,0.23 0.21,0.15 0.32,0.36 0.32,0.63 0,0.28 -0.1,0.49 -0.31,0.63 -0.21,0.14 -0.51,0.21 -0.92,0.21l-0.16 0 0 3.43c0,0.48 -0.08,0.84 -0.23,1.07 -0.16,0.23 -0.4,0.34 -0.73,0.34 -0.33,0 -0.57,-0.11 -0.73,-0.35 -0.16,-0.23 -0.24,-0.58 -0.24,-1.06l0 -3.43z"/>
    <path id="38" class="fil6" d="M158.32 287.98c0,-0.48 0.08,-0.84 0.24,-1.07 0.17,-0.23 0.41,-0.35 0.74,-0.35 0.32,0 0.56,0.12 0.72,0.35 0.15,0.24 0.23,0.59 0.23,1.07l0 6.64c0,0.48 -0.07,0.84 -0.23,1.07 -0.16,0.23 -0.4,0.34 -0.72,0.34 -0.33,0 -0.57,-0.11 -0.74,-0.35 -0.16,-0.23 -0.24,-0.58 -0.24,-1.06l0 -6.64z"/>
    <path id="39" class="fil6" d="M165.19 290.09c0.1,-0.27 0.22,-0.46 0.35,-0.59 0.14,-0.12 0.31,-0.18 0.52,-0.18 0.28,0 0.51,0.08 0.69,0.25 0.17,0.16 0.25,0.39 0.25,0.67 0,0.09 -0.01,0.2 -0.04,0.31 -0.03,0.11 -0.07,0.23 -0.12,0.36l-2.95 7.02c-0.12,0.29 -0.25,0.5 -0.38,0.61 -0.13,0.12 -0.28,0.17 -0.47,0.17 -0.29,0 -0.53,-0.08 -0.7,-0.25 -0.17,-0.17 -0.26,-0.39 -0.26,-0.68 0,-0.11 0.02,-0.22 0.04,-0.33 0.03,-0.12 0.07,-0.22 0.12,-0.33l0.8 -1.74 -1.95 -4.56c-0.04,-0.07 -0.06,-0.15 -0.08,-0.24 -0.01,-0.08 -0.02,-0.19 -0.02,-0.3 0,-0.27 0.09,-0.5 0.27,-0.69 0.18,-0.18 0.4,-0.27 0.67,-0.27 0.23,0 0.42,0.06 0.56,0.2 0.15,0.13 0.29,0.37 0.42,0.73l1.09 2.93 1.19 -3.09z"/>
    <path id="40" class="fil6" d="M58.56 306.25l-0.07 0c-0.35,0 -0.61,-0.07 -0.81,-0.22 -0.19,-0.15 -0.29,-0.35 -0.29,-0.61 0,-0.26 0.1,-0.47 0.29,-0.61 0.2,-0.14 0.49,-0.23 0.88,-0.25l0 -0.85c0,-0.48 0.08,-0.83 0.24,-1.07 0.16,-0.23 0.4,-0.35 0.73,-0.35 0.32,0 0.56,0.12 0.72,0.35 0.16,0.24 0.24,0.59 0.24,1.07l0 0.85 0.17 0c0.38,0 0.68,0.07 0.9,0.23 0.21,0.15 0.32,0.36 0.32,0.63 0,0.27 -0.1,0.48 -0.31,0.62 -0.21,0.14 -0.51,0.21 -0.92,0.21l-0.16 0 0 3.44c0,0.48 -0.08,0.83 -0.23,1.07 -0.16,0.23 -0.4,0.34 -0.73,0.34 -0.33,0 -0.57,-0.12 -0.73,-0.35 -0.16,-0.23 -0.24,-0.58 -0.24,-1.06l0 -3.44z"/>
    <path id="41" class="fil6" d="M64.2 304.96c0.21,-0.21 0.44,-0.37 0.7,-0.47 0.26,-0.09 0.58,-0.14 0.97,-0.14 0.76,0 1.35,0.22 1.75,0.65 0.4,0.44 0.61,1.08 0.61,1.91l0 2.78c0,0.48 -0.08,0.83 -0.24,1.06 -0.16,0.23 -0.41,0.35 -0.74,0.35 -0.32,0 -0.57,-0.12 -0.73,-0.35 -0.16,-0.23 -0.24,-0.58 -0.24,-1.06l0 -2.19c0,-0.54 -0.08,-0.93 -0.24,-1.16 -0.16,-0.23 -0.43,-0.34 -0.8,-0.34 -0.36,0 -0.62,0.12 -0.78,0.35 -0.17,0.24 -0.26,0.61 -0.26,1.12l0 2.22c0,0.48 -0.08,0.83 -0.24,1.06 -0.16,0.23 -0.4,0.35 -0.73,0.35 -0.33,0 -0.57,-0.12 -0.73,-0.35 -0.16,-0.23 -0.24,-0.58 -0.24,-1.06l0 -6.64c0,-0.48 0.08,-0.84 0.24,-1.07 0.16,-0.23 0.4,-0.35 0.73,-0.35 0.33,0 0.57,0.12 0.73,0.35 0.16,0.24 0.24,0.6 0.24,1.07l0 1.91z"/>
    <path id="42" class="fil6" d="M69.42 302.75c0,-0.31 0.11,-0.57 0.33,-0.79 0.22,-0.22 0.48,-0.33 0.79,-0.33 0.3,0 0.56,0.11 0.78,0.33 0.21,0.22 0.32,0.48 0.32,0.79 0,0.32 -0.1,0.58 -0.32,0.79 -0.21,0.22 -0.47,0.33 -0.78,0.33 -0.32,0 -0.58,-0.11 -0.8,-0.33 -0.21,-0.21 -0.32,-0.47 -0.32,-0.79zm2.08 6.94c0,0.48 -0.08,0.83 -0.24,1.07 -0.16,0.23 -0.4,0.34 -0.72,0.34 -0.33,0 -0.57,-0.12 -0.74,-0.35 -0.16,-0.23 -0.24,-0.58 -0.24,-1.06l0 -3.9c0,-0.48 0.08,-0.83 0.24,-1.06 0.16,-0.23 0.41,-0.34 0.74,-0.34 0.32,0 0.56,0.11 0.72,0.34 0.16,0.23 0.24,0.58 0.24,1.06l0 3.9z"/>
    <path id="43" class="fil6" d="M74.74 311.2c-0.69,0 -1.26,-0.14 -1.72,-0.42 -0.45,-0.27 -0.68,-0.61 -0.68,-1.02 0,-0.25 0.07,-0.45 0.22,-0.62 0.14,-0.17 0.32,-0.25 0.52,-0.25 0.2,0 0.5,0.09 0.9,0.28 0.4,0.19 0.7,0.28 0.9,0.28 0.16,0 0.29,-0.04 0.39,-0.11 0.1,-0.08 0.15,-0.17 0.15,-0.28 0,-0.2 -0.31,-0.42 -0.94,-0.66l-0.13 -0.05c-0.7,-0.3 -1.19,-0.59 -1.45,-0.88 -0.26,-0.29 -0.39,-0.66 -0.39,-1.1 0,-0.6 0.23,-1.1 0.69,-1.5 0.46,-0.4 1.04,-0.6 1.74,-0.6 0.63,0 1.17,0.14 1.61,0.41 0.44,0.27 0.66,0.58 0.66,0.95 0,0.23 -0.08,0.42 -0.23,0.58 -0.15,0.15 -0.34,0.23 -0.57,0.23 -0.15,0 -0.4,-0.08 -0.75,-0.23 -0.36,-0.16 -0.63,-0.24 -0.81,-0.24 -0.13,0 -0.24,0.03 -0.32,0.09 -0.08,0.07 -0.12,0.15 -0.12,0.25 0,0.18 0.26,0.36 0.77,0.56 0.24,0.09 0.43,0.17 0.57,0.24 0.58,0.26 0.99,0.53 1.24,0.82 0.25,0.29 0.37,0.64 0.37,1.05 0,0.64 -0.25,1.16 -0.74,1.59 -0.5,0.42 -1.12,0.63 -1.88,0.63z"/>
    <path id="44" class="fil6" d="M89.07 305.21c0.08,-0.26 0.19,-0.46 0.35,-0.59 0.15,-0.14 0.34,-0.21 0.56,-0.21 0.28,0 0.49,0.09 0.66,0.26 0.17,0.17 0.25,0.4 0.25,0.69 0,0.07 -0.01,0.16 -0.03,0.25 -0.02,0.09 -0.06,0.22 -0.11,0.38l-1.49 4.24c-0.13,0.34 -0.27,0.58 -0.44,0.73 -0.17,0.14 -0.4,0.21 -0.67,0.21 -0.29,0 -0.54,-0.08 -0.74,-0.25 -0.2,-0.18 -0.34,-0.43 -0.43,-0.75l-0.8 -3.09 -0.75 3.15c-0.07,0.29 -0.2,0.52 -0.4,0.69 -0.19,0.17 -0.43,0.25 -0.7,0.25 -0.3,0 -0.54,-0.07 -0.71,-0.22 -0.17,-0.15 -0.33,-0.41 -0.47,-0.78l-1.53 -4.3c-0.04,-0.11 -0.07,-0.2 -0.09,-0.28 -0.02,-0.09 -0.02,-0.17 -0.02,-0.24 0,-0.28 0.08,-0.5 0.26,-0.69 0.18,-0.18 0.4,-0.27 0.67,-0.27 0.25,0 0.45,0.07 0.61,0.23 0.17,0.15 0.29,0.39 0.39,0.71l1.02 3.55 0.83 -3.56c0.06,-0.28 0.17,-0.5 0.33,-0.65 0.15,-0.15 0.34,-0.23 0.56,-0.23 0.25,0 0.46,0.08 0.63,0.24 0.16,0.15 0.28,0.37 0.36,0.67l0.88 3.47 1.02 -3.61z"/>
    <path id="45" class="fil6" d="M91.44 302.75c0,-0.31 0.11,-0.57 0.33,-0.79 0.22,-0.22 0.49,-0.33 0.79,-0.33 0.31,0 0.57,0.11 0.78,0.33 0.22,0.22 0.33,0.48 0.33,0.79 0,0.32 -0.11,0.58 -0.32,0.79 -0.22,0.22 -0.48,0.33 -0.79,0.33 -0.31,0 -0.58,-0.11 -0.79,-0.33 -0.22,-0.21 -0.33,-0.47 -0.33,-0.79zm2.08 6.94c0,0.48 -0.08,0.83 -0.23,1.07 -0.16,0.23 -0.4,0.34 -0.73,0.34 -0.32,0 -0.57,-0.12 -0.73,-0.35 -0.16,-0.23 -0.24,-0.58 -0.24,-1.06l0 -3.9c0,-0.48 0.08,-0.83 0.24,-1.06 0.16,-0.23 0.4,-0.34 0.73,-0.34 0.33,0 0.57,0.11 0.73,0.34 0.15,0.23 0.23,0.58 0.23,1.06l0 3.9z"/>
    <path id="46" class="fil6" d="M94.97 303.05c0,-0.48 0.08,-0.84 0.24,-1.07 0.16,-0.23 0.41,-0.35 0.73,-0.35 0.33,0 0.57,0.12 0.72,0.35 0.16,0.24 0.24,0.59 0.24,1.07l0 6.64c0,0.48 -0.08,0.83 -0.23,1.07 -0.16,0.23 -0.4,0.34 -0.73,0.34 -0.32,0 -0.57,-0.12 -0.73,-0.35 -0.16,-0.23 -0.24,-0.58 -0.24,-1.06l0 -6.64z"/>
    <path id="47" class="fil6" d="M98.35 303.05c0,-0.48 0.08,-0.84 0.24,-1.07 0.16,-0.23 0.41,-0.35 0.73,-0.35 0.33,0 0.57,0.12 0.72,0.35 0.16,0.24 0.24,0.59 0.24,1.07l0 6.64c0,0.48 -0.08,0.83 -0.23,1.07 -0.16,0.23 -0.4,0.34 -0.73,0.34 -0.32,0 -0.57,-0.12 -0.73,-0.35 -0.16,-0.23 -0.24,-0.58 -0.24,-1.06l0 -6.64z"/>
    <path id="48" class="fil6" d="M107.56 307.71c0,0.48 0.12,0.88 0.36,1.17 0.24,0.3 0.55,0.45 0.92,0.45 0.37,0 0.68,-0.15 0.92,-0.45 0.24,-0.3 0.36,-0.69 0.36,-1.17 0,-0.49 -0.12,-0.89 -0.36,-1.2 -0.23,-0.3 -0.54,-0.45 -0.92,-0.45 -0.37,0 -0.68,0.15 -0.92,0.45 -0.24,0.3 -0.36,0.7 -0.36,1.2zm0.04 -2.89c0.21,-0.19 0.44,-0.33 0.7,-0.42 0.25,-0.09 0.53,-0.14 0.82,-0.14 0.84,0 1.55,0.33 2.12,1 0.57,0.66 0.86,1.49 0.86,2.48 0,0.94 -0.29,1.74 -0.88,2.4 -0.59,0.67 -1.29,1 -2.1,1 -0.32,0 -0.61,-0.06 -0.88,-0.17 -0.27,-0.11 -0.5,-0.28 -0.69,-0.49 -0.12,0.2 -0.26,0.36 -0.41,0.46 -0.16,0.11 -0.33,0.16 -0.51,0.16 -0.33,0 -0.58,-0.11 -0.74,-0.35 -0.15,-0.23 -0.23,-0.58 -0.23,-1.06l0 -6.65c0,-0.48 0.08,-0.83 0.23,-1.06 0.16,-0.23 0.41,-0.35 0.74,-0.35 0.32,0 0.57,0.12 0.73,0.35 0.16,0.23 0.24,0.58 0.24,1.06l0 1.78z"/>
    <path id="49" class="fil6" d="M114.65 307.02l2.55 0c-0.02,-0.33 -0.15,-0.61 -0.39,-0.83 -0.24,-0.22 -0.53,-0.33 -0.86,-0.33 -0.33,0 -0.61,0.11 -0.85,0.31 -0.23,0.21 -0.39,0.49 -0.45,0.85zm0.02 1.26c0.04,0.37 0.19,0.65 0.45,0.85 0.26,0.21 0.59,0.31 1.01,0.31 0.37,0 0.78,-0.1 1.22,-0.31 0.45,-0.21 0.72,-0.32 0.83,-0.32 0.23,0 0.41,0.07 0.56,0.21 0.14,0.14 0.21,0.32 0.21,0.54 0,0.42 -0.29,0.79 -0.87,1.13 -0.58,0.33 -1.26,0.5 -2.05,0.5 -0.95,0 -1.75,-0.33 -2.39,-0.98 -0.64,-0.66 -0.96,-1.47 -0.96,-2.46 0,-0.99 0.31,-1.81 0.93,-2.47 0.62,-0.66 1.4,-0.99 2.33,-0.99 0.9,0 1.65,0.31 2.25,0.93 0.61,0.62 0.91,1.38 0.91,2.28 0,0.29 -0.07,0.49 -0.2,0.61 -0.13,0.12 -0.39,0.17 -0.76,0.17l-3.47 0z"/>
    <path id="50" class="fil6" d="M128.11 310.43c-0.19,0.23 -0.43,0.42 -0.71,0.54 -0.27,0.13 -0.58,0.19 -0.91,0.19 -0.82,0 -1.52,-0.32 -2.09,-0.98 -0.56,-0.65 -0.85,-1.46 -0.85,-2.44 0,-0.96 0.3,-1.78 0.88,-2.44 0.58,-0.66 1.3,-0.99 2.14,-0.99 0.32,0 0.62,0.06 0.87,0.17 0.25,0.11 0.48,0.29 0.67,0.52 0.12,-0.2 0.25,-0.35 0.41,-0.46 0.15,-0.1 0.33,-0.15 0.52,-0.15 0.33,0 0.57,0.11 0.72,0.34 0.16,0.22 0.24,0.58 0.24,1.06l0 3.9c0,0.47 -0.08,0.83 -0.24,1.06 -0.16,0.23 -0.4,0.35 -0.72,0.35 -0.21,0 -0.4,-0.06 -0.55,-0.17 -0.14,-0.1 -0.27,-0.27 -0.38,-0.5zm-2.55 -2.71c0,0.48 0.11,0.86 0.35,1.15 0.23,0.29 0.53,0.43 0.9,0.43 0.37,0 0.66,-0.14 0.9,-0.44 0.23,-0.29 0.34,-0.67 0.34,-1.14 0,-0.46 -0.11,-0.83 -0.35,-1.12 -0.23,-0.29 -0.53,-0.43 -0.89,-0.43 -0.37,0 -0.67,0.14 -0.9,0.43 -0.24,0.28 -0.35,0.66 -0.35,1.12z"/>
    <path id="51" class="fil6" d="M132.42 310.17l-1.69 -4.3c-0.03,-0.1 -0.06,-0.19 -0.08,-0.28 -0.02,-0.09 -0.03,-0.17 -0.03,-0.24 0,-0.28 0.09,-0.5 0.27,-0.69 0.18,-0.18 0.4,-0.27 0.67,-0.27 0.24,0 0.44,0.07 0.6,0.22 0.15,0.15 0.29,0.39 0.39,0.72l1.06 3.37 1.05 -3.49c0.08,-0.27 0.2,-0.47 0.35,-0.6 0.15,-0.13 0.34,-0.2 0.56,-0.2 0.27,0 0.49,0.09 0.66,0.26 0.17,0.17 0.25,0.4 0.25,0.69 0,0.09 -0.01,0.19 -0.04,0.29 -0.02,0.11 -0.06,0.22 -0.11,0.34l-1.63 4.24c-0.14,0.36 -0.3,0.6 -0.46,0.74 -0.16,0.14 -0.38,0.2 -0.66,0.2 -0.27,0 -0.5,-0.07 -0.67,-0.2 -0.17,-0.14 -0.33,-0.41 -0.49,-0.8z"/>
    <path id="52" class="fil6" d="M141.21 310.43c-0.19,0.23 -0.43,0.42 -0.71,0.54 -0.28,0.13 -0.58,0.19 -0.91,0.19 -0.83,0 -1.52,-0.32 -2.09,-0.98 -0.57,-0.65 -0.85,-1.46 -0.85,-2.44 0,-0.96 0.29,-1.78 0.88,-2.44 0.58,-0.66 1.29,-0.99 2.13,-0.99 0.33,0 0.62,0.06 0.88,0.17 0.25,0.11 0.48,0.29 0.67,0.52 0.11,-0.2 0.25,-0.35 0.4,-0.46 0.16,-0.1 0.33,-0.15 0.53,-0.15 0.32,0 0.56,0.11 0.72,0.34 0.16,0.22 0.23,0.58 0.23,1.06l0 3.9c0,0.47 -0.08,0.83 -0.23,1.06 -0.16,0.23 -0.4,0.35 -0.72,0.35 -0.22,0 -0.4,-0.06 -0.55,-0.17 -0.15,-0.1 -0.28,-0.27 -0.38,-0.5zm-2.56 -2.71c0,0.48 0.12,0.86 0.35,1.15 0.23,0.29 0.54,0.43 0.91,0.43 0.36,0 0.66,-0.14 0.89,-0.44 0.23,-0.29 0.35,-0.67 0.35,-1.14 0,-0.46 -0.12,-0.83 -0.35,-1.12 -0.23,-0.29 -0.53,-0.43 -0.89,-0.43 -0.37,0 -0.67,0.14 -0.91,0.43 -0.23,0.28 -0.35,0.66 -0.35,1.12z"/>
    <path id="53" class="fil6" d="M144.35 302.75c0,-0.31 0.11,-0.57 0.33,-0.79 0.22,-0.22 0.48,-0.33 0.79,-0.33 0.31,0 0.57,0.11 0.78,0.33 0.22,0.22 0.32,0.48 0.32,0.79 0,0.32 -0.1,0.58 -0.32,0.79 -0.21,0.22 -0.47,0.33 -0.78,0.33 -0.32,0 -0.58,-0.11 -0.8,-0.33 -0.21,-0.21 -0.32,-0.47 -0.32,-0.79zm2.08 6.94c0,0.48 -0.08,0.83 -0.24,1.07 -0.15,0.23 -0.39,0.34 -0.72,0.34 -0.33,0 -0.57,-0.12 -0.73,-0.35 -0.16,-0.23 -0.24,-0.58 -0.24,-1.06l0 -3.9c0,-0.48 0.08,-0.83 0.23,-1.06 0.16,-0.23 0.41,-0.34 0.74,-0.34 0.33,0 0.57,0.11 0.72,0.34 0.16,0.23 0.24,0.58 0.24,1.06l0 3.9z"/>
    <path id="54" class="fil6" d="M147.88 303.05c0,-0.48 0.08,-0.84 0.24,-1.07 0.16,-0.23 0.4,-0.35 0.73,-0.35 0.32,0 0.56,0.12 0.72,0.35 0.16,0.24 0.24,0.59 0.24,1.07l0 6.64c0,0.48 -0.08,0.83 -0.24,1.07 -0.15,0.23 -0.39,0.34 -0.72,0.34 -0.33,0 -0.57,-0.12 -0.73,-0.35 -0.16,-0.23 -0.24,-0.58 -0.24,-1.06l0 -6.64z"/>
    <path id="55" class="fil6" d="M155.37 310.43c-0.19,0.23 -0.43,0.42 -0.71,0.54 -0.27,0.13 -0.58,0.19 -0.9,0.19 -0.83,0 -1.53,-0.32 -2.1,-0.98 -0.56,-0.65 -0.85,-1.46 -0.85,-2.44 0,-0.96 0.3,-1.78 0.88,-2.44 0.59,-0.66 1.3,-0.99 2.14,-0.99 0.32,0 0.62,0.06 0.87,0.17 0.25,0.11 0.48,0.29 0.67,0.52 0.12,-0.2 0.25,-0.35 0.41,-0.46 0.15,-0.1 0.33,-0.15 0.52,-0.15 0.33,0 0.57,0.11 0.72,0.34 0.16,0.22 0.24,0.58 0.24,1.06l0 3.9c0,0.47 -0.08,0.83 -0.24,1.06 -0.16,0.23 -0.4,0.35 -0.72,0.35 -0.21,0 -0.4,-0.06 -0.55,-0.17 -0.14,-0.1 -0.27,-0.27 -0.38,-0.5zm-2.55 -2.71c0,0.48 0.12,0.86 0.35,1.15 0.23,0.29 0.53,0.43 0.9,0.43 0.37,0 0.67,-0.14 0.9,-0.44 0.23,-0.29 0.35,-0.67 0.35,-1.14 0,-0.46 -0.12,-0.83 -0.36,-1.12 -0.23,-0.29 -0.53,-0.43 -0.89,-0.43 -0.37,0 -0.67,0.14 -0.9,0.43 -0.23,0.28 -0.35,0.66 -0.35,1.12z"/>
    <path id="56" class="fil6" d="M160.51 307.71c0,0.48 0.11,0.88 0.35,1.17 0.24,0.3 0.55,0.45 0.92,0.45 0.38,0 0.68,-0.15 0.92,-0.45 0.24,-0.3 0.36,-0.69 0.36,-1.17 0,-0.49 -0.12,-0.89 -0.35,-1.2 -0.24,-0.3 -0.55,-0.45 -0.93,-0.45 -0.37,0 -0.68,0.15 -0.92,0.45 -0.24,0.3 -0.35,0.7 -0.35,1.2zm0.03 -2.89c0.21,-0.19 0.45,-0.33 0.7,-0.42 0.26,-0.09 0.53,-0.14 0.83,-0.14 0.83,0 1.54,0.33 2.11,1 0.58,0.66 0.86,1.49 0.86,2.48 0,0.94 -0.29,1.74 -0.88,2.4 -0.59,0.67 -1.29,1 -2.09,1 -0.32,0 -0.62,-0.06 -0.89,-0.17 -0.26,-0.11 -0.49,-0.28 -0.68,-0.49 -0.13,0.2 -0.26,0.36 -0.42,0.46 -0.15,0.11 -0.32,0.16 -0.51,0.16 -0.33,0 -0.58,-0.11 -0.73,-0.35 -0.16,-0.23 -0.24,-0.58 -0.24,-1.06l0 -6.65c0,-0.48 0.08,-0.83 0.24,-1.06 0.15,-0.23 0.4,-0.35 0.73,-0.35 0.33,0 0.57,0.12 0.73,0.35 0.16,0.23 0.24,0.58 0.24,1.06l0 1.78z"/>
    <path id="57" class="fil6" d="M166.06 303.05c0,-0.48 0.08,-0.84 0.24,-1.07 0.17,-0.23 0.41,-0.35 0.74,-0.35 0.32,0 0.56,0.12 0.72,0.35 0.16,0.24 0.24,0.59 0.24,1.07l0 6.64c0,0.48 -0.08,0.83 -0.24,1.07 -0.16,0.23 -0.4,0.34 -0.72,0.34 -0.33,0 -0.57,-0.12 -0.74,-0.35 -0.16,-0.23 -0.24,-0.58 -0.24,-1.06l0 -6.64z"/>
    <path id="58" class="fil6" d="M170.97 307.02l2.56 0c-0.03,-0.33 -0.16,-0.61 -0.4,-0.83 -0.24,-0.22 -0.52,-0.33 -0.86,-0.33 -0.32,0 -0.61,0.11 -0.84,0.31 -0.24,0.21 -0.39,0.49 -0.46,0.85zm0.02 1.26c0.05,0.37 0.2,0.65 0.45,0.85 0.26,0.21 0.6,0.31 1.02,0.31 0.36,0 0.77,-0.1 1.21,-0.31 0.45,-0.21 0.73,-0.32 0.83,-0.32 0.23,0 0.41,0.07 0.56,0.21 0.14,0.14 0.21,0.32 0.21,0.54 0,0.42 -0.29,0.79 -0.87,1.13 -0.58,0.33 -1.26,0.5 -2.04,0.5 -0.96,0 -1.76,-0.33 -2.4,-0.98 -0.64,-0.66 -0.96,-1.47 -0.96,-2.46 0,-0.99 0.31,-1.81 0.94,-2.47 0.62,-0.66 1.39,-0.99 2.32,-0.99 0.9,0 1.65,0.31 2.26,0.93 0.6,0.62 0.9,1.38 0.9,2.28 0,0.29 -0.06,0.49 -0.2,0.61 -0.13,0.12 -0.38,0.17 -0.76,0.17l-3.47 0z"/>
    <path id="59" class="fil6" d="M180.17 302.75c0,-0.31 0.11,-0.57 0.33,-0.79 0.22,-0.22 0.49,-0.33 0.79,-0.33 0.31,0 0.57,0.11 0.78,0.33 0.22,0.22 0.33,0.48 0.33,0.79 0,0.32 -0.11,0.58 -0.32,0.79 -0.22,0.22 -0.48,0.33 -0.79,0.33 -0.31,0 -0.58,-0.11 -0.79,-0.33 -0.22,-0.21 -0.33,-0.47 -0.33,-0.79zm2.08 6.94c0,0.48 -0.08,0.83 -0.23,1.07 -0.16,0.23 -0.4,0.34 -0.73,0.34 -0.33,0 -0.57,-0.12 -0.73,-0.35 -0.16,-0.23 -0.24,-0.58 -0.24,-1.06l0 -3.9c0,-0.48 0.08,-0.83 0.24,-1.06 0.15,-0.23 0.4,-0.34 0.73,-0.34 0.33,0 0.57,0.11 0.73,0.34 0.15,0.23 0.23,0.58 0.23,1.06l0 3.9z"/>
    <path id="60" class="fil6" d="M183.64 309.69l0 -3.9c0,-0.47 0.08,-0.83 0.24,-1.06 0.15,-0.23 0.4,-0.34 0.73,-0.34 0.19,0 0.37,0.05 0.52,0.15 0.15,0.1 0.29,0.26 0.4,0.46 0.21,-0.23 0.45,-0.39 0.72,-0.5 0.28,-0.1 0.61,-0.15 0.99,-0.15 0.77,0 1.35,0.22 1.76,0.65 0.4,0.44 0.6,1.08 0.6,1.91l0 2.78c0,0.48 -0.08,0.83 -0.24,1.06 -0.16,0.23 -0.4,0.35 -0.73,0.35 -0.33,0 -0.57,-0.12 -0.73,-0.35 -0.16,-0.23 -0.24,-0.58 -0.24,-1.06l0 -2.19c0,-0.54 -0.08,-0.93 -0.24,-1.16 -0.17,-0.23 -0.43,-0.34 -0.81,-0.34 -0.35,0 -0.61,0.12 -0.78,0.35 -0.16,0.24 -0.25,0.61 -0.25,1.12l0 2.22c0,0.48 -0.08,0.83 -0.24,1.06 -0.16,0.23 -0.4,0.35 -0.73,0.35 -0.33,0 -0.58,-0.12 -0.73,-0.35 -0.16,-0.23 -0.24,-0.58 -0.24,-1.06z"/>
    <path id="61" class="fil6" d="M195.26 306.25l-0.07 0c-0.34,0 -0.61,-0.07 -0.8,-0.22 -0.2,-0.15 -0.3,-0.35 -0.3,-0.61 0,-0.26 0.1,-0.47 0.3,-0.61 0.19,-0.14 0.48,-0.23 0.87,-0.25l0 -0.85c0,-0.48 0.08,-0.83 0.24,-1.07 0.16,-0.23 0.4,-0.35 0.73,-0.35 0.33,0 0.57,0.12 0.72,0.35 0.16,0.24 0.24,0.59 0.24,1.07l0 0.85 0.17 0c0.38,0 0.68,0.07 0.9,0.23 0.21,0.15 0.32,0.36 0.32,0.63 0,0.27 -0.1,0.48 -0.31,0.62 -0.21,0.14 -0.51,0.21 -0.92,0.21l-0.16 0 0 3.44c0,0.48 -0.08,0.83 -0.23,1.07 -0.16,0.23 -0.4,0.34 -0.73,0.34 -0.33,0 -0.57,-0.12 -0.73,-0.35 -0.16,-0.23 -0.24,-0.58 -0.24,-1.06l0 -3.44z"/>
    <path id="62" class="fil6" d="M200.91 304.96c0.2,-0.21 0.44,-0.37 0.69,-0.47 0.26,-0.09 0.58,-0.14 0.97,-0.14 0.76,0 1.35,0.22 1.75,0.65 0.4,0.44 0.61,1.08 0.61,1.91l0 2.78c0,0.48 -0.08,0.83 -0.24,1.06 -0.16,0.23 -0.41,0.35 -0.73,0.35 -0.33,0 -0.58,-0.12 -0.74,-0.35 -0.16,-0.23 -0.24,-0.58 -0.24,-1.06l0 -2.19c0,-0.54 -0.08,-0.93 -0.24,-1.16 -0.16,-0.23 -0.43,-0.34 -0.8,-0.34 -0.35,0 -0.61,0.12 -0.78,0.35 -0.17,0.24 -0.25,0.61 -0.25,1.12l0 2.22c0,0.48 -0.08,0.83 -0.24,1.06 -0.17,0.23 -0.41,0.35 -0.74,0.35 -0.33,0 -0.57,-0.12 -0.73,-0.35 -0.16,-0.23 -0.24,-0.58 -0.24,-1.06l0 -6.64c0,-0.48 0.08,-0.84 0.24,-1.07 0.16,-0.23 0.4,-0.35 0.73,-0.35 0.33,0 0.57,0.12 0.74,0.35 0.16,0.24 0.24,0.6 0.24,1.07l0 1.91z"/>
    <path id="63" class="fil6" d="M207.79 307.02l2.56 0c-0.03,-0.33 -0.16,-0.61 -0.4,-0.83 -0.24,-0.22 -0.52,-0.33 -0.86,-0.33 -0.32,0 -0.61,0.11 -0.84,0.31 -0.24,0.21 -0.39,0.49 -0.46,0.85zm0.03 1.26c0.04,0.37 0.19,0.65 0.44,0.85 0.26,0.21 0.6,0.31 1.02,0.31 0.36,0 0.77,-0.1 1.21,-0.31 0.45,-0.21 0.73,-0.32 0.83,-0.32 0.23,0 0.41,0.07 0.56,0.21 0.14,0.14 0.22,0.32 0.22,0.54 0,0.42 -0.3,0.79 -0.88,1.13 -0.58,0.33 -1.26,0.5 -2.04,0.5 -0.96,0 -1.76,-0.33 -2.4,-0.98 -0.64,-0.66 -0.96,-1.47 -0.96,-2.46 0,-0.99 0.31,-1.81 0.94,-2.47 0.62,-0.66 1.4,-0.99 2.32,-0.99 0.9,0 1.65,0.31 2.26,0.93 0.6,0.62 0.9,1.38 0.9,2.28 0,0.29 -0.06,0.49 -0.2,0.61 -0.13,0.12 -0.38,0.17 -0.76,0.17l-3.46 0z"/>
    <path id="64" class="fil6" d="M217.08 309.69l0 -3.9c0,-0.47 0.08,-0.83 0.24,-1.06 0.15,-0.23 0.4,-0.34 0.73,-0.34 0.19,0 0.37,0.05 0.52,0.15 0.15,0.1 0.29,0.26 0.4,0.46 0.21,-0.23 0.45,-0.39 0.72,-0.5 0.28,-0.1 0.61,-0.15 0.99,-0.15 0.77,0 1.35,0.22 1.76,0.65 0.4,0.44 0.6,1.08 0.6,1.91l0 2.78c0,0.48 -0.08,0.83 -0.24,1.06 -0.16,0.23 -0.4,0.35 -0.73,0.35 -0.33,0 -0.57,-0.12 -0.73,-0.35 -0.16,-0.23 -0.24,-0.58 -0.24,-1.06l0 -2.19c0,-0.54 -0.08,-0.93 -0.24,-1.16 -0.17,-0.23 -0.43,-0.34 -0.8,-0.34 -0.36,0 -0.62,0.12 -0.79,0.35 -0.16,0.24 -0.25,0.61 -0.25,1.12l0 2.22c0,0.48 -0.08,0.83 -0.24,1.06 -0.16,0.23 -0.4,0.35 -0.73,0.35 -0.33,0 -0.58,-0.12 -0.73,-0.35 -0.16,-0.23 -0.24,-0.58 -0.24,-1.06z"/>
    <path id="65" class="fil6" d="M225.91 307.02l2.56 0c-0.03,-0.33 -0.16,-0.61 -0.4,-0.83 -0.24,-0.22 -0.53,-0.33 -0.86,-0.33 -0.33,0 -0.61,0.11 -0.85,0.31 -0.23,0.21 -0.38,0.49 -0.45,0.85zm0.02 1.26c0.05,0.37 0.19,0.65 0.45,0.85 0.26,0.21 0.6,0.31 1.02,0.31 0.36,0 0.77,-0.1 1.21,-0.31 0.45,-0.21 0.72,-0.32 0.83,-0.32 0.23,0 0.41,0.07 0.56,0.21 0.14,0.14 0.21,0.32 0.21,0.54 0,0.42 -0.29,0.79 -0.87,1.13 -0.58,0.33 -1.26,0.5 -2.04,0.5 -0.96,0 -1.76,-0.33 -2.4,-0.98 -0.64,-0.66 -0.96,-1.47 -0.96,-2.46 0,-0.99 0.31,-1.81 0.93,-2.47 0.63,-0.66 1.4,-0.99 2.33,-0.99 0.9,0 1.65,0.31 2.25,0.93 0.61,0.62 0.91,1.38 0.91,2.28 0,0.29 -0.07,0.49 -0.2,0.61 -0.13,0.12 -0.39,0.17 -0.76,0.17l-3.47 0z"/>
    <path id="66" class="fil6" d="M235.39 310.43c-0.2,0.23 -0.43,0.42 -0.71,0.54 -0.28,0.13 -0.58,0.19 -0.91,0.19 -0.83,0 -1.53,-0.32 -2.09,-0.98 -0.57,-0.65 -0.85,-1.46 -0.85,-2.44 0,-0.96 0.29,-1.78 0.87,-2.44 0.59,-0.66 1.3,-0.99 2.14,-0.99 0.33,0 0.62,0.06 0.87,0.17 0.26,0.11 0.48,0.29 0.68,0.52 0.11,-0.2 0.25,-0.35 0.4,-0.46 0.16,-0.1 0.33,-0.15 0.52,-0.15 0.33,0 0.57,0.11 0.73,0.34 0.15,0.22 0.23,0.58 0.23,1.06l0 3.9c0,0.47 -0.08,0.83 -0.24,1.06 -0.15,0.23 -0.39,0.35 -0.72,0.35 -0.21,0 -0.39,-0.06 -0.54,-0.17 -0.15,-0.1 -0.28,-0.27 -0.38,-0.5zm-2.56 -2.71c0,0.48 0.12,0.86 0.35,1.15 0.23,0.29 0.53,0.43 0.91,0.43 0.36,0 0.66,-0.14 0.89,-0.44 0.23,-0.29 0.35,-0.67 0.35,-1.14 0,-0.46 -0.12,-0.83 -0.35,-1.12 -0.24,-0.29 -0.53,-0.43 -0.89,-0.43 -0.37,0 -0.67,0.14 -0.91,0.43 -0.23,0.28 -0.35,0.66 -0.35,1.12z"/>
    <path id="67" class="fil6" d="M238.61 309.69l0 -3.9c0,-0.48 0.08,-0.83 0.24,-1.06 0.16,-0.23 0.4,-0.34 0.73,-0.34 0.2,0 0.37,0.05 0.52,0.15 0.16,0.1 0.29,0.26 0.41,0.46 0.2,-0.21 0.41,-0.38 0.63,-0.49 0.23,-0.11 0.45,-0.16 0.68,-0.16 0.27,0 0.5,0.09 0.7,0.28 0.19,0.19 0.29,0.42 0.29,0.68 0,0.39 -0.36,0.71 -1.07,0.97 -0.26,0.1 -0.45,0.17 -0.58,0.23 -0.24,0.12 -0.4,0.25 -0.48,0.39 -0.08,0.14 -0.12,0.4 -0.12,0.77l0 2.02c0,0.48 -0.08,0.83 -0.24,1.06 -0.17,0.23 -0.41,0.35 -0.74,0.35 -0.33,0 -0.57,-0.12 -0.73,-0.35 -0.16,-0.23 -0.24,-0.58 -0.24,-1.06z"/>
    <path id="68" class="fil6" d="M249.63 304.56l0.29 0c0.38,0 0.68,0.07 0.9,0.23 0.22,0.15 0.33,0.36 0.33,0.63 0,0.27 -0.11,0.48 -0.32,0.62 -0.21,0.14 -0.51,0.21 -0.91,0.21l-0.29 0 0 3.44c0,0.47 -0.08,0.82 -0.25,1.06 -0.16,0.23 -0.41,0.35 -0.74,0.35 -0.33,0 -0.58,-0.12 -0.74,-0.35 -0.16,-0.23 -0.24,-0.58 -0.24,-1.06l0 -3.44 -0.07 0c-0.34,0 -0.61,-0.07 -0.8,-0.22 -0.2,-0.15 -0.29,-0.35 -0.29,-0.61 0,-0.26 0.09,-0.47 0.29,-0.61 0.19,-0.14 0.48,-0.23 0.87,-0.25 0,-0.04 0,-0.09 0,-0.16 -0.01,-0.08 -0.01,-0.13 -0.01,-0.17 0,-0.83 0.18,-1.48 0.52,-1.93 0.35,-0.45 0.85,-0.67 1.5,-0.67 0.4,0 0.71,0.09 0.94,0.26 0.22,0.17 0.34,0.41 0.34,0.71 0,0.24 -0.07,0.42 -0.2,0.54 -0.13,0.13 -0.36,0.21 -0.69,0.26 -0.18,0.03 -0.3,0.09 -0.35,0.16 -0.05,0.07 -0.08,0.26 -0.08,0.56l0 0.44z"/>
    <path id="69" class="fil6" d="M251.55 308.37l0 -2.58c0,-0.48 0.08,-0.83 0.24,-1.06 0.16,-0.23 0.4,-0.34 0.73,-0.34 0.33,0 0.57,0.11 0.72,0.34 0.16,0.23 0.24,0.58 0.24,1.06l0 2.18c0,0.52 0.08,0.89 0.24,1.1 0.15,0.21 0.41,0.32 0.76,0.32 0.35,0 0.6,-0.11 0.76,-0.32 0.16,-0.21 0.23,-0.58 0.23,-1.1l0 -2.18c0,-0.48 0.08,-0.83 0.24,-1.06 0.16,-0.23 0.41,-0.34 0.74,-0.34 0.32,0 0.56,0.11 0.72,0.34 0.16,0.22 0.24,0.58 0.24,1.06l0 2.58c0,0.92 -0.25,1.63 -0.75,2.11 -0.51,0.49 -1.23,0.73 -2.18,0.73 -0.95,0 -1.67,-0.24 -2.17,-0.73 -0.51,-0.48 -0.76,-1.19 -0.76,-2.11z"/>
    <path id="70" class="fil6" d="M259.1 306.25l-0.07 0c-0.34,0 -0.61,-0.07 -0.8,-0.22 -0.2,-0.15 -0.29,-0.35 -0.29,-0.61 0,-0.26 0.09,-0.47 0.29,-0.61 0.19,-0.14 0.49,-0.23 0.87,-0.25l0 -0.85c0,-0.48 0.08,-0.83 0.24,-1.07 0.16,-0.23 0.41,-0.35 0.74,-0.35 0.32,0 0.56,0.12 0.72,0.35 0.16,0.24 0.24,0.59 0.24,1.07l0 0.85 0.16 0c0.39,0 0.69,0.07 0.9,0.23 0.22,0.15 0.33,0.36 0.33,0.63 0,0.27 -0.11,0.48 -0.31,0.62 -0.21,0.14 -0.52,0.21 -0.93,0.21l-0.15 0 0 3.44c0,0.48 -0.08,0.83 -0.24,1.07 -0.15,0.23 -0.4,0.34 -0.72,0.34 -0.33,0 -0.58,-0.12 -0.74,-0.35 -0.16,-0.23 -0.24,-0.58 -0.24,-1.06l0 -3.44z"/>
    <path id="71" class="fil6" d="M262.77 308.37l0 -2.58c0,-0.48 0.08,-0.83 0.24,-1.06 0.16,-0.23 0.4,-0.34 0.73,-0.34 0.33,0 0.57,0.11 0.72,0.34 0.16,0.23 0.24,0.58 0.24,1.06l0 2.18c0,0.52 0.08,0.89 0.23,1.1 0.16,0.21 0.41,0.32 0.77,0.32 0.35,0 0.6,-0.11 0.76,-0.32 0.16,-0.21 0.23,-0.58 0.23,-1.1l0 -2.18c0,-0.48 0.08,-0.83 0.24,-1.06 0.16,-0.23 0.4,-0.34 0.74,-0.34 0.32,0 0.56,0.11 0.72,0.34 0.16,0.22 0.23,0.58 0.23,1.06l0 2.58c0,0.92 -0.25,1.63 -0.75,2.11 -0.5,0.49 -1.22,0.73 -2.17,0.73 -0.95,0 -1.67,-0.24 -2.18,-0.73 -0.5,-0.48 -0.75,-1.19 -0.75,-2.11z"/>
    <path id="72" class="fil6" d="M269.93 309.69l0 -3.9c0,-0.48 0.08,-0.83 0.24,-1.06 0.16,-0.23 0.4,-0.34 0.73,-0.34 0.19,0 0.37,0.05 0.52,0.15 0.15,0.1 0.29,0.26 0.41,0.46 0.19,-0.21 0.41,-0.38 0.63,-0.49 0.22,-0.11 0.45,-0.16 0.68,-0.16 0.27,0 0.5,0.09 0.69,0.28 0.2,0.19 0.29,0.42 0.29,0.68 0,0.39 -0.35,0.71 -1.06,0.97 -0.26,0.1 -0.45,0.17 -0.58,0.23 -0.24,0.12 -0.41,0.25 -0.49,0.39 -0.08,0.14 -0.12,0.4 -0.12,0.77l0 2.02c0,0.48 -0.08,0.83 -0.24,1.06 -0.16,0.23 -0.4,0.35 -0.73,0.35 -0.33,0 -0.57,-0.12 -0.73,-0.35 -0.16,-0.23 -0.24,-0.58 -0.24,-1.06z"/>
    <path id="73" class="fil6" d="M276.19 307.02l2.56 0c-0.03,-0.33 -0.16,-0.61 -0.4,-0.83 -0.24,-0.22 -0.53,-0.33 -0.86,-0.33 -0.33,0 -0.61,0.11 -0.84,0.31 -0.24,0.21 -0.39,0.49 -0.46,0.85zm0.02 1.26c0.05,0.37 0.2,0.65 0.45,0.85 0.26,0.21 0.6,0.31 1.02,0.31 0.36,0 0.77,-0.1 1.21,-0.31 0.45,-0.21 0.72,-0.32 0.83,-0.32 0.23,0 0.41,0.07 0.56,0.21 0.14,0.14 0.21,0.32 0.21,0.54 0,0.42 -0.29,0.79 -0.87,1.13 -0.58,0.33 -1.26,0.5 -2.04,0.5 -0.96,0 -1.76,-0.33 -2.4,-0.98 -0.64,-0.66 -0.96,-1.47 -0.96,-2.46 0,-0.99 0.31,-1.81 0.93,-2.47 0.63,-0.66 1.4,-0.99 2.33,-0.99 0.9,0 1.65,0.31 2.25,0.93 0.61,0.62 0.91,1.38 0.91,2.28 0,0.29 -0.07,0.49 -0.2,0.61 -0.13,0.12 -0.39,0.17 -0.76,0.17l-3.47 0z"/>
    <path id="74" class="fil6" d="M281.13 309.98c0,-0.31 0.11,-0.57 0.33,-0.79 0.22,-0.22 0.49,-0.33 0.79,-0.33 0.31,0 0.57,0.11 0.78,0.33 0.22,0.22 0.33,0.48 0.33,0.79 0,0.31 -0.11,0.58 -0.32,0.79 -0.22,0.22 -0.48,0.33 -0.79,0.33 -0.31,0 -0.58,-0.11 -0.79,-0.33 -0.22,-0.21 -0.33,-0.48 -0.33,-0.79z"/>
  </g>
</svg>