<?xml version="1.0" encoding="utf-8"?>
<svg viewBox="0 0 340 244.158" clip-rule="evenodd" fill-rule="evenodd" image-rendering="optimizeQuality" shape-rendering="geometricPrecision" text-rendering="geometricPrecision" xmlns="http://www.w3.org/2000/svg">
  <path d="m0 0h340v340h-340z" fill="none" transform="matrix(0.9999999999999999, 0, 0, 0.9999999999999999, 0, 1.4210854715202004e-14)"/>
  <path d="m93.77 21.53h152.46c9.94 0 18.07 8.13 18.07 18.06v91.91c-.58 0-1.14.03-1.7.07v-91.98c0-8.99-7.37-16.36-16.37-16.36h-152.46c-9 0-16.37 7.37-16.37 16.36v19.66h185.2v1.7h-185.2v119.08l.19.02c-.62-.07-1.25-.12-1.89-.17v-140.29c0-9.93 8.13-18.06 18.07-18.06zm170.53 150.35v9.73c-3.91.27-7.78.78-11.6 1.52 3.27-.64 6.57-1.1 9.9-1.39v-9.94c.56.05 1.12.08 1.7.08zm-12.13 11.36c-.28.05-.55.11-.83.17.28-.06.55-.12.83-.17zm-1.73.36c-.14.04-.28.07-.43.1.15-.03.29-.06.43-.1zm-165.42-2.44c-.14-.03-.27-.05-.41-.08.14.03.28.05.41.08zm-.64-.13c-.15-.03-.31-.06-.47-.09.16.03.32.06.47.09z" fill="#ff8c26" transform="matrix(0.9999999999999999, 0, 0, 0.9999999999999999, 0, 1.4210854715202004e-14)"/>
  <circle cx="102.34" cy="41.52" r="6.18" transform="matrix(0.9999999999999999, 0, 0, 0.9999999999999999, 0, 1.4210854715202004e-14)"/>
  <circle cx="117.68" cy="41.52" r="6.18" transform="matrix(0.9999999999999999, 0, 0, 0.9999999999999999, 0, 1.4210854715202004e-14)"/>
  <circle cx="133.05" cy="41.52" r="6.18" transform="matrix(0.9999999999999999, 0, 0, 0.9999999999999999, 0, 1.4210854715202004e-14)"/>
  <circle cx="148.75" cy="114.24" r="6.18" transform="matrix(0.9999999999999999, 0, 0, 0.9999999999999999, 0, 1.4210854715202004e-14)"/>
  <circle cx="191.25" cy="114.24" r="6.18" transform="matrix(0.9999999999999999, 0, 0, 0.9999999999999999, 0, 1.4210854715202004e-14)"/>
  <path d="m156.07 40.87h78.23c.51 0 .93.38.93.85 0 .47-.42.85-.93.85h-78.23c-.51 0-.93-.38-.93-.85 0-.47.42-.85.93-.85z" transform="matrix(0.9999999999999999, 0, 0, 0.9999999999999999, 0, 1.4210854715202004e-14)"/>
  <path d="m149.45 147.28c-.35.31-.89.27-1.2-.08s-.27-.89.09-1.2c7.19-6.27 14.42-9.29 21.66-9.24 7.25.06 14.46 3.19 21.65 9.23.36.3.41.84.1 1.2-.3.35-.83.4-1.19.1-6.88-5.79-13.73-8.78-20.56-8.83s-13.67 2.84-20.55 8.82z" transform="matrix(0.9999999999999999, 0, 0, 0.9999999999999999, 0, 1.4210854715202004e-14)"/>
  <path d="m264.3 131.5c11.15 0 20.18 9.04 20.18 20.19s-9.03 20.19-20.18 20.19-20.19-9.04-20.19-20.19 9.04-20.19 20.19-20.19zm0 1.7c10.21 0 18.48 8.28 18.48 18.49s-8.27 18.49-18.48 18.49-18.49-8.28-18.49-18.49 8.28-18.49 18.49-18.49z" fill="#f00" transform="matrix(0.9999999999999999, 0, 0, 0.9999999999999999, 0, 1.4210854715202004e-14)"/>
  <path d="m269.53 145.26c.33-.34.87-.34 1.2 0 .33.33.33.87 0 1.2l-11.66 11.66c-.34.33-.87.33-1.21 0-.33-.33-.33-.87 0-1.2z" fill="#f00" fill-rule="nonzero" transform="matrix(0.9999999999999999, 0, 0, 0.9999999999999999, 0, 1.4210854715202004e-14)"/>
  <path d="m257.86 146.46c-.33-.33-.33-.87 0-1.2.34-.34.87-.34 1.21 0l11.66 11.66c.33.33.33.87 0 1.2s-.87.33-1.2 0z" fill="#f00" fill-rule="nonzero" transform="matrix(0.9999999999999999, 0, 0, 0.9999999999999999, 0, 1.4210854715202004e-14)"/>
  <path d="m40.61 186.2c-.45.14-.93-.11-1.07-.55-.14-.45.11-.93.56-1.07 16.76-5.32 32.15-6.26 46.26-3.14 13.95 3.09 26.62 10.15 38.11 20.89 20.76-8.46 41.52-8.79 62.28-.23 4.61-3.05 8.89-4.54 12.86-4.47 3.91.06 7.48 1.64 10.69 4.71 12.71-9.31 25.95-15.53 39.71-18.64 13.98-3.16 28.49-3.1 43.53.2.46.1.75.55.65 1.01-.1.45-.55.75-1.01.65-14.8-3.25-29.07-3.31-42.8-.21-13.73 3.11-26.94 9.37-39.64 18.77-.34.26-.82.24-1.12-.07-3.03-3.09-6.38-4.67-10.04-4.73-3.7-.06-7.77 1.4-12.21 4.4-.23.19-.56.24-.85.12-20.62-8.62-41.25-8.28-61.87.25-.31.14-.68.09-.94-.15-11.38-10.74-23.92-17.79-37.72-20.84-13.81-3.06-28.9-2.13-45.38 3.1z" transform="matrix(0.9999999999999999, 0, 0, 0.9999999999999999, 0, 1.4210854715202004e-14)"/>
  <path d="m243.7 201.01c-.41.22-.92.08-1.15-.33s-.08-.93.33-1.15c7-3.89 13.99-6.1 20.99-6.88 6.99-.78 13.97-.12 20.94 1.75.46.12.73.58.61 1.04-.13.45-.59.72-1.04.6-6.78-1.81-13.55-2.46-20.33-1.7-6.77.75-13.56 2.9-20.35 6.67z" transform="matrix(0.9999999999999999, 0, 0, 0.9999999999999999, 0, 1.4210854715202004e-14)"/>
  <path d="m83.47 200.32c-.47-.03-.83-.43-.8-.9s.43-.83.9-.8c6.79.43 12.1 2.12 16.27 4.78 3.99 2.53 6.94 5.93 9.18 9.92 3.2-1.02 6.3-1.31 9.33-.95 3.23.38 6.36 1.5 9.41 3.23.41.23.55.75.32 1.15-.23.41-.75.55-1.15.32-2.86-1.62-5.78-2.66-8.78-3.01-2.99-.36-6.07-.03-9.25 1.08-.39.14-.83-.02-1.03-.4-2.14-4.01-5.01-7.41-8.94-9.91-3.94-2.5-8.98-4.11-15.46-4.51z" transform="matrix(0.9999999999999999, 0, 0, 0.9999999999999999, 0, 1.4210854715202004e-14)"/>
  <path d="m225.83 86.11c-2.99.13-3.99-3.29-2.82-5.79.48-1.05 1.34-2.39 2.82-4.04 1.44 1.62 2.3 2.95 2.79 3.98 1.19 2.53.23 5.98-2.79 5.85z" fill="#6d7dc8" transform="matrix(0.9999999999999999, 0, 0, 0.9999999999999999, 0, 1.4210854715202004e-14)"/>
  <path d="m219.02 94.91c-2.99.13-3.98-3.29-2.82-5.79.49-1.05 1.35-2.39 2.82-4.04 1.45 1.62 2.3 2.94 2.79 3.98 1.2 2.52.24 5.98-2.79 5.85z" fill="#6d7dc8" transform="matrix(0.9999999999999999, 0, 0, 0.9999999999999999, 0, 1.4210854715202004e-14)"/>
</svg>