<svg viewBox="0 0 24 24" stroke-width="2" stroke="currentColor" fill="none" stroke-linecap="round" stroke-linejoin="round" xmlns="http://www.w3.org/2000/svg"><path d="M0 0h24v24H0z" stroke="none"/><path d="M10.197 13.712a3.05 3.05 0 0 0 4.52 0l3.616-3.817c1.739-1.837.943-4.973-1.434-5.646-1.101-.311-2.278.022-3.086.875l-.452.476"/><path d="M13.813 9.895a3.046 3.046 0 0 0-4.519 0l-3.616 3.817c-1.739 1.837-.944 4.972 1.432 5.644 1.103.313 2.279-.019 3.087-.872l.452-.478"/><path d="M.092-.456h24v24h-24v-24Z" stroke="none"/><path d="M17.093 18.544c0 1.539 1.666 2.502 3 1.732.618-.358 1-1.018 1-1.732 0-1.54-1.667-2.502-3-1.732-.619.357-1 1.017-1 1.732m2-3.5v1.5m0 4v1.5m3.031-5.25-1.299.75m-3.463 2-1.3.75m0-3.5 1.3.75m3.463 2 1.3.75"/></svg>