<svg xmlns="http://www.w3.org/2000/svg" stroke="currentColor" viewBox="0 0 1000 1000" xml:space="preserve"><path d="M894.5 633.4 663.3 500l231.1-133.4c39.1-22.5 52.4-72.5 29.9-111.6-22.6-39.1-72.5-52.4-111.6-29.9l-231 133.4V91.7c0-45.1-36.6-81.7-81.7-81.7s-81.7 36.6-81.7 81.7v266.9L187.2 225.1c-39.1-22.6-89-9.2-111.6 29.9-22.6 39.1-9.2 89 29.9 111.6L336.7 500 105.5 633.4C66.5 656 53.1 705.9 75.7 745c22.5 39.1 72.5 52.5 111.6 29.9l231.1-133.4v266.9c0 45.1 36.6 81.7 81.7 81.7s81.7-36.6 81.7-81.7v-267l231.1 133.4c39.1 22.6 89 9.2 111.6-29.9 22.4-39 9-88.9-30-111.5z"/></svg>